<?xml version="1.0" encoding="utf-8"?>
<!-- Generator: Adobe Illustrator 25.4.1, SVG Export Plug-In . SVG Version: 6.00 Build 0)  -->
<svg version="1.0" id="katman_1" xmlns="http://www.w3.org/2000/svg" xmlns:xlink="http://www.w3.org/1999/xlink" x="0px" y="0px"
	 viewBox="0 0 1280 1024" style="enable-background:new 0 0 1280 1024;" xml:space="preserve">
<style type="text/css">
	.st0{fill:#ED1C24;}
	.st1{fill:#FFFFFF;}
	.st2{clip-path:url(#SVGID_00000091726678417853153600000008139031878294686379_);fill:#FFFFFF;}
	.st3{clip-path:url(#SVGID_00000091726678417853153600000008139031878294686379_);}
</style>
<g>
	<path class="st0" d="M309.2,249.2h655.5c68.2,0,123.1,54.9,123.1,123.1v155c0,68.2-54.9,123.1-123.1,123.1H309.2
		c-68.2,0-123.1-54.9-123.1-123.1v-155C186.1,304.1,241,249.2,309.2,249.2L309.2,249.2z M309.2,249.2"/>
	<path class="st1" d="M964.6,656H309.2c-71-0.1-128.6-57.7-128.7-128.7v-155c0-34.2,13.5-67,37.6-91.2c24.1-24.2,56.8-37.9,91-37.9
		h655.5c34.2,0.1,67,13.7,91,37.9c24.1,24.2,37.7,57,37.6,91.2v155C1093.2,598.3,1035.7,655.9,964.6,656L964.6,656z M309.2,254.3
		c-31.2,0.1-61.1,12.5-83.1,34.5c-22,22.1-34.4,52-34.4,83.2v155.2c0,64.9,52.6,117.5,117.5,117.6h655.5
		c64.9-0.1,117.6-52.7,117.6-117.6v-155c0.1-31.2-12.2-61.1-34.2-83.3c-22.1-22.1-51.9-34.6-83.1-34.7H309.2z M309.2,254.3"/>
	<path class="st1" d="M326.8,304.7h620.3c46.8,0,84.4,37.6,84.4,84.4v121.4c0,46.8-37.7,84.4-84.4,84.4H326.8
		c-46.8,0-84.5-37.7-84.5-84.4V389.1C242.3,342.3,279.9,304.7,326.8,304.7L326.8,304.7z M326.8,304.7"/>
	<path d="M461.5,331.5l25.3,91l24.5,89l1.8,0.9h35.3l1.2-2.1V382.2c-7-0.6-14.1-0.9-21.2-0.6c-0.7-16.8-0.7-33.7,0-50.5h155.4
		c22.8,2.9,47.2,8.7,60.2,31.3c12.9,21.1,13.5,47.4,1.8,69.1c-6.4,10.1-15.3,18.3-25.9,23.8c11.2,3,19.7,12.3,21.5,23.8
		c1.5,11.1-2.3,24.1,9.5,30.4c6.8,2.6,14.2,3.7,21.5,3.2h24c1.6-1.1,6,1.3,6.6-2V384.1l-2.1-1.2h-18.2l-0.6-1.9v-48.5h59.5l78,0.9
		c29.4,0.9,55.4,19.3,66.1,46.8c6.7,20,0.4,42.1-15.8,55.7c-5.7,4.5-12,8.3-18.7,11.1c18.5,3.1,34.6,14.3,43.9,30.6
		c8.8,18.2,7.8,39.5-2.5,56.9c-13.2,19.8-35.4,31.6-59.2,31.6H704.2c-10.4,0.9-20.6-2.6-28.5-9.5c-18.2-19.2-1.4-53.7-14.2-75.1
		c-7.8-10-19.8-6.1-31.3-6.5c-0.7,12.5-0.7,25,0,37.5c6.2,0.8,14,0,20.3,0.7l0.7,1.9v50.8l-1.7,0.2H405.6l-0.7-0.9v-51l0.7-1.1
		l17.2-0.7l0.7-0.6c-1.2-7.5-3-14.9-5.1-22.3c-15.9-0.6-33.4,0-47.9,0c-3.1,4.5-4,10.3-2,15.4c4.2,6.3,11.7,9.6,19.1,8.3v52.9h-97.1
		v-52.6h0.9c7.9,0.9,15.8-2,21.1-8c5.4-7.3,9.1-15.6,11.1-24.5l28.5-93c-0.7-1.8,3-5.3-0.9-5.7h-26.3l-1-2.5l0.7-48h118.5
		L461.5,331.5z M461.5,331.5"/>
	<g>
		<defs>
			<rect id="SVGID_1_" x="134" y="243.2" width="1012" height="537.6"/>
		</defs>
		<clipPath id="SVGID_00000078764467235815889720000012103740709370417564_">
			<use xlink:href="#SVGID_1_"  style="overflow:visible;"/>
		</clipPath>
		<path style="clip-path:url(#SVGID_00000078764467235815889720000012103740709370417564_);fill:#FFFFFF;" d="M667.2,394.2
			c3.4,9.9,1.7,20.9-4.4,29.5c-9.6,9.5-22.2,5.2-33.4,6.2l-0.9-0.9v-46.2C641.9,384.1,661.4,376.7,667.2,394.2L667.2,394.2z
			 M909.4,388.9c3.8,4.5,5.6,10.4,5.1,16.3c-0.6,5.1-3,9.9-6.8,13.3c-8.2,4.4-17.7,5.9-26.9,4.3v-38.5
			C890.1,384.1,902.6,381.5,909.4,388.9L909.4,388.9z M406.4,443.5c-8.3,0.4-16.5,0.4-24.7,0v-3.9l13.2-45.7
			C399.4,410.7,403.2,426.7,406.4,443.5L406.4,443.5z M915.2,479c4,6.8,4.5,15,1.5,22.2c-2.7,6.3-8.6,10.6-15.4,11.1
			c-6.9,0.5-13.8,0.5-20.8,0c-0.2-13.2-0.2-27.5-0.2-41.3c0.9-0.6,1.9-0.9,3-1C894.4,470.9,909.1,467.1,915.2,479L915.2,479z
			 M915.2,479"/>
		<path style="clip-path:url(#SVGID_00000078764467235815889720000012103740709370417564_);" d="M134,744.7l31.2-41.6h32.7V744
			l9.6-0.7v21.4l-10.3-0.8l0.7,15.3h-26.2l1-15.3l-38.6,0.8V744.7z M159.3,744.7l13.3-0.7v-11.1c0.1-2.2,0.4-4.3,1.2-6.2h-0.5
			c-1.1,2.3-2.5,4.4-4.2,6.3L159.3,744.7z M291.6,703l-23.4,35.6l27.2,40.5h-32l-8.6-16.2c-0.8-1.4-1.4-3-1.7-4.6h-0.7
			c-0.5,1.8-1.2,3.5-2.1,5.2l-8.5,15.6h-31.5l26.6-40.5L212.6,703h31.2l5.7,11.1c1,2,1.8,4.1,2.3,6.2h0.6c0.6-2.2,1.4-4.3,2.5-6.2
			L260,703H291.6L291.6,703z M297.8,744.7l31.2-41.6h32.7V744l9.6-0.7v21.4l-10.2-0.8l0.6,15.3H335l1-15.3l-38.6,0.8v-20
			L297.8,744.7z M323.1,744.7l13.3-0.7v-11.1c0.1-2.2,0.4-4.3,1.2-6.2H337c-1.1,2.3-2.5,4.4-4.2,6.3L323.1,744.7z M443,779.2h-29.3
			l26.5-76.1h30.6l27.1,76.1h-29.4l-2.6-9.5h-20.7L443,779.2z M461.3,751.5l-3.2-13.5c-0.7-3.2-1.4-6.5-1.8-9.8h-1.1l-5,23.2H461.3z
			 M557.5,734c-4.3-4.5-10.1-7.3-16.2-7.7c-8.2-0.1-15,6.5-15,14.8c0.2,8.3,7.1,15,15.4,14.8c6-0.1,11.7-2.7,15.8-7.1v28.5
			c-6.4,2.1-13,3.1-19.7,3c-21.1,0.2-38.3-16.7-38.5-37.7v-0.7c-0.3-21.9,17.2-39.7,39-40h0.7c6.3,0,12.6,1,18.6,3.1L557.5,734z
			 M622.2,734c-4.3-4.5-10.1-7.3-16.2-7.7c-8.2-0.1-15,6.5-15,14.8c0.2,8.3,7.1,15,15.4,14.8c6-0.1,11.7-2.7,15.8-7.1l-0.7,28.5
			c-6.4,2.1-13,3.1-19.7,3c-21.1,0.2-38.4-16.7-38.6-37.7v-0.9c-0.3-21.8,17.2-39.7,39-40h0.7c6.3,0.1,12.6,1.1,18.6,3.1L622.2,734z
			 M629.6,703h51.1v20.8h-23v7.2H679v19.8h-21.3v7.4h24.1v20.8h-52.2L629.6,703z M695.5,751.9l1.4,1.1c4.8,4.1,10.9,6.6,17.2,7
			c3.3,0.5,6.4-1.7,7-4.9c0-3.5-3.7-3.8-6.1-4.2l-5.5-1c-10.9-0.5-19.6-9.3-20-20.1c1-16.6,15.3-29.3,31.9-28.3c0.5,0,1,0.1,1.5,0.1
			c8.5-0.1,16.9,2.2,24.1,6.7l-7.5,19.5c-4.8-3.7-10.5-5.8-16.5-6c-2.7-0.5-5.4,1.3-5.9,4c0,2.8,3.5,3.2,5.5,3.8l6.2,1.5
			c11.5,1,20.2,10.7,20.2,22.2c0,18.2-16.6,27.2-33.4,27.2c-10.1-0.2-20.1-2.5-29.3-7.1L695.5,751.9z M760.3,751.9l1.5,1.1
			c4.8,4.1,10.9,6.6,17.2,7c3.3,0.5,6.3-1.7,7-4.9c0-3.5-3.6-3.8-6.1-4.2l-5.5-1c-10.9-0.5-19.5-9.3-20-20.1
			c1.1-16.6,15.3-29.3,31.9-28.3c0.5,0,1,0.1,1.5,0.1c8.5-0.1,16.9,2.2,24.1,6.7l-7.5,19.5c-4.8-3.7-10.5-5.8-16.5-6
			c-2.8-0.5-5.4,1.3-5.9,4c0,2.8,3.5,3.3,5.6,3.8l6.2,1.4c11.4,1.1,20.2,10.7,20.1,22.2c0,18.2-16.6,27.2-33.4,27.2
			c-10.2-0.1-20.1-2.5-29.3-7L760.3,751.9z M902.6,741.3c-4,52-80.2,52-84.1,0C822.3,689.3,898.6,689.3,902.6,741.3L902.6,741.3z
			 M846.2,741.3c0,19,28.5,19,28.5,0c-0.3-19.3-29.2-18.8-29,0.4L846.2,741.3z M909.8,703h33.4c17.2,0,31.8,7.2,31.8,26.5
			c1.1,9.4-5.3,18.2-14.7,19.8v0.6c1.8,1.2,3.4,2.8,4.7,4.6l16.6,24.7h-31.9l-12.1-24v24.3h-27.6V703z M936.8,736.4h1.9
			c4.6,0,9.1-0.6,9.1-6.3s-4.1-6.6-8.9-6.6h-2.1V736.4z M984.3,703h27.7v76.1h-27.7V703z M1022.4,703h51.2v20.8h-23.4v7.2h21.3v19.8
			h-21.3v7.4h24.1v20.8h-51.9V703z M1088.3,751.9l1.4,1.1c4.8,4.1,10.9,6.6,17.3,7c3.2,0.5,6.3-1.7,7-4.9c0-3.5-3.7-3.8-6.1-4.2
			l-5.6-1c-10.9-0.5-19.5-9.3-19.9-20.1c1-16.6,15.3-29.3,31.9-28.3c0.5,0,1,0.1,1.5,0.1c8.5-0.1,16.9,2.2,24.1,6.7l-7.5,19.5
			c-4.8-3.7-10.5-5.8-16.5-6c-2.8-0.5-5.4,1.3-5.9,4c0.7,2.4,3,4,5.6,3.8l6.2,1.4c11.5,1,20.3,10.7,20.3,22.2
			c0,18.2-16.6,27.2-33.3,27.2c-10.2-0.1-20.2-2.5-29.3-7L1088.3,751.9z M1088.3,751.9"/>
	</g>
</g>
</svg>
