<svg version="1.1" id="Layer_1" xmlns:x="ns_extend;" xmlns:i="ns_ai;" xmlns:graph="ns_graphs;" xmlns="http://www.w3.org/2000/svg" xmlns:xlink="http://www.w3.org/1999/xlink" x="0px" y="0px" viewBox="0 0 253 88" style="enable-background:new 0 0 253 88;" xml:space="preserve">
 <style type="text/css">
  .st0{fill:#FFFFFF;}
	.st1{fill:#78BE20;}
 </style>
 <metadata>
  <sfw xmlns="ns_sfw;">
   <slices>
   </slices>
   <sliceSourceBounds bottomLeftOrigin="true" height="88" width="253" x="-134.9" y="-281.3">
   </sliceSourceBounds>
  </sfw>
 </metadata>
 <g>
  <path class="st0" d="M105.8,25.5l3-8.9h0.1l2.8,8.9H105.8z M112.1,13c-0.2-0.6-0.5-1.1-1-1.4c-0.5-0.3-1.1-0.5-1.7-0.4h-1.2
		c-0.5-0.1-1.1,0.1-1.5,0.3c-0.5,0.3-0.8,0.7-1,1.2l-6.5,17.2c-0.2,0.6-0.4,1.2-0.5,1.9c0,0.3,0,0.6,0.2,0.9
		c0.1,0.3,0.3,0.5,0.5,0.7c0.2,0.2,0.5,0.4,0.8,0.5c0.3,0.1,0.6,0.1,0.9,0.1c0.5,0.1,1,0,1.4-0.3s0.7-0.6,0.9-1.1l1.3-3.7h8.1
		l1.3,3.7c0.2,0.5,0.5,0.8,0.9,1.1c0.4,0.2,0.9,0.3,1.4,0.3c0.3,0,0.6,0,0.9-0.1c0.3-0.1,0.5-0.3,0.8-0.5c0.2-0.2,0.4-0.5,0.5-0.7
		c0.1-0.3,0.2-0.6,0.2-0.9c-0.1-0.7-0.2-1.3-0.5-1.9L112.1,13z">
  </path>
  <path class="st0" d="M125.6,34c1.1,0,2.1-0.2,3.1-0.7c0.9-0.5,1.8-1.2,2.4-2.1h0.1v0.6c0,1.4,0.6,2.3,2,2.3c1.4,0,2-0.9,2-2.3V19.4
		c0-0.6-0.2-1.2-0.7-1.6c-0.4-0.4-1-0.7-1.6-0.7c-0.6,0-1.2,0.2-1.6,0.7c-0.4,0.4-0.7,1-0.7,1.6v7.4c0,0.5-0.1,0.9-0.2,1.3
		c-0.2,0.4-0.4,0.8-0.7,1.1c-0.3,0.3-0.7,0.6-1.1,0.8c-0.4,0.2-0.9,0.3-1.3,0.3c-1.9,0-2.8-1.3-2.8-3.1v-7.8c0-0.6-0.2-1.2-0.7-1.6
		c-0.4-0.4-1-0.7-1.6-0.7c-0.6,0-1.2,0.2-1.6,0.7c-0.4,0.4-0.7,1-0.7,1.6v8.7C120,32.7,123,34,125.6,34">
  </path>
  <path class="st0" d="M144.5,30.9c-3.3,0-3.4-2.7-5.5-2.7c-0.2,0-0.5,0-0.7,0.1c-0.2,0.1-0.4,0.2-0.6,0.4c-0.2,0.2-0.3,0.4-0.4,0.6
		c-0.1,0.2-0.1,0.5-0.1,0.7c0,2.2,3.4,4,7.4,4c3.4,0,6.9-1.7,6.9-5.3c0-3.2-3-4.2-5.6-4.8l-1.8-0.4c-1.4-0.3-2.4-0.5-2.4-1.6
		s1-1.4,2.6-1.4c2.8,0,2.9,2,4.7,2c0.3,0,0.5,0,0.7-0.1c0.2-0.1,0.4-0.2,0.6-0.4c0.2-0.2,0.3-0.4,0.4-0.6c0.1-0.2,0.1-0.5,0.1-0.8
		c0-2-3.4-3.4-6.8-3.4c-3.1,0-6.7,1.4-6.7,5c0,3,2,4.1,4.7,4.7l2.6,0.7c1.6,0.5,2.6,0.6,2.6,1.8C147.1,30.2,146.2,30.9,144.5,30.9">
  </path>
  <path class="st0" d="M160.2,30.9c-3.3,0-3.5-2.7-5.4-2.7c-0.2,0-0.5,0-0.7,0.1c-0.2,0.1-0.4,0.2-0.6,0.4c-0.2,0.2-0.3,0.4-0.4,0.6
		c-0.1,0.2-0.1,0.5-0.1,0.7c0,2.2,3.4,4,7.4,4c3.4,0,6.9-1.7,6.9-5.3c0-3.2-3-4.2-5.6-4.8l-1.9-0.4c-1.4-0.3-2.4-0.5-2.4-1.6
		s1-1.4,2.6-1.4c2.8,0,2.9,2,4.7,2c0.3,0,0.5,0,0.7-0.1c0.2-0.1,0.4-0.2,0.6-0.4c0.2-0.2,0.3-0.4,0.4-0.6c0.1-0.2,0.1-0.5,0.1-0.8
		c0-2-3.4-3.4-6.8-3.4c-3.1,0-6.7,1.4-6.7,5c0,3,2,4.1,4.7,4.7l2.6,0.7c1.6,0.4,2.6,0.6,2.6,1.7C162.8,30.1,161.8,30.8,160.2,30.9">
  </path>
  <path class="st0" d="M171.9,15.6c0.6,0,1.2-0.2,1.6-0.7c0.4-0.4,0.7-1,0.7-1.6c0-0.3-0.1-0.6-0.2-0.9c-0.1-0.3-0.3-0.5-0.5-0.8
		c-0.2-0.2-0.5-0.4-0.8-0.5c-0.3-0.1-0.6-0.2-0.9-0.2c-0.6,0-1.2,0.2-1.6,0.7c-0.4,0.4-0.7,1-0.7,1.6c0,0.3,0.1,0.6,0.2,0.9
		c0.1,0.3,0.3,0.5,0.5,0.8c0.2,0.2,0.5,0.4,0.8,0.5C171.3,15.6,171.6,15.6,171.9,15.6z">
  </path>
  <path class="st0" d="M169.7,19.4v12.4c0,0.6,0.2,1.2,0.7,1.6c0.4,0.4,1,0.7,1.6,0.7c0.6,0,1.2-0.2,1.6-0.7c0.4-0.4,0.7-1,0.7-1.6
		V19.4c0-0.3,0-0.6-0.1-0.9c-0.1-0.3-0.3-0.6-0.5-0.8c-0.2-0.2-0.5-0.4-0.8-0.5c-0.3-0.1-0.6-0.1-0.9-0.1
		C170.1,17.2,169.7,18.2,169.7,19.4z">
  </path>
  <path class="st0" d="M185.1,20.3c1,0,1.9,0.4,2.6,1c0.7,0.7,1.1,1.6,1.2,2.5H181C181.5,21.7,182.8,20.3,185.1,20.3 M185.1,34
		c2.7,0,7-1.2,7-3.9c0-0.5-0.2-0.9-0.6-1.2c-0.3-0.3-0.8-0.5-1.3-0.5c-1.8,0-1.8,2.2-5.2,2.2c-0.5,0-1.1,0-1.6-0.2
		c-0.5-0.2-1-0.5-1.4-0.9c-0.4-0.4-0.7-0.9-0.9-1.4c-0.2-0.5-0.3-1.1-0.3-1.6h10.1c1.5,0,1.9-0.4,1.9-1.9c0-3.7-2.9-7.3-8.1-7.3
		c-5.3,0-8.5,3.5-8.5,8.7C176.4,29.8,178.8,34,185.1,34">
  </path>
  <path class="st0" d="M108,56.1h-4.2v-6h3.6c2.5,0,4.8,0.4,4.8,3C112.1,55.8,110,56.1,108,56.1z M103.8,41.6h4.1
		c1.9,0,3.7,0.6,3.7,2.7c0,1.7-1.1,2.7-3.5,2.7h-4.1v-5.4H103.8z M113.4,48.1c0.9-0.3,1.7-0.9,2.3-1.7c0.6-0.8,0.9-1.8,0.9-2.7
		c0-4.9-4.4-5.7-8.1-5.7h-6.7c-1.8,0-3,0.7-3,2.9V57c0,2.3,1.2,2.9,3,2.9h7.4c4.4,0,8.1-1.9,8.1-6.5c0.1-1.2-0.3-2.4-1-3.4
		C115.5,49.1,114.5,48.4,113.4,48.1">
  </path>
  <path class="st0" d="M127.5,43.6c-2.2,0-3.2,1.9-3.7,3.8h-0.1v-1.7c0-0.5-0.2-1.1-0.6-1.4c-0.4-0.4-0.9-0.6-1.4-0.6
		c-0.5,0-1.1,0.2-1.4,0.6c-0.4,0.4-0.6,0.9-0.6,1.4v12.5c0,0.6,0.3,1.1,0.7,1.5c0.4,0.4,1,0.6,1.5,0.6c0.6,0,1.1-0.2,1.5-0.6
		c0.4-0.4,0.7-0.9,0.7-1.5v-5.2c0-3.7,1-4.9,2.8-4.9h0.8c0.3,0,0.6,0,0.9-0.1c0.3-0.1,0.5-0.3,0.7-0.5c0.2-0.2,0.4-0.5,0.5-0.8
		c0.1-0.3,0.1-0.6,0.1-0.9c0-0.3-0.1-0.6-0.2-0.9c-0.1-0.3-0.3-0.5-0.6-0.7c-0.2-0.2-0.5-0.4-0.8-0.4
		C128.1,43.6,127.8,43.5,127.5,43.6">
  </path>
  <path class="st0" d="M138.3,57.1c-2.7,0-3.8-2.4-3.8-5.1c0-2.9,1.2-5.1,3.8-5.1c2.7,0,3.8,2.2,3.8,5.1
		C142.1,54.9,140.9,57.1,138.3,57.1z M138.3,43.6c-5.4,0-8.3,3.7-8.3,8.4c0,4.5,2.2,8.4,8.3,8.4c6.1,0,8.3-3.9,8.3-8.4
		C146.6,47.2,143.7,43.6,138.3,43.6z">
  </path>
  <path class="st0" d="M158.9,54.1c0,1.7-1.5,3.3-4,3.3c-1.5,0-2.5-0.8-2.5-1.8c0-1.4,1-1.9,2.9-2.2l1.7-0.2c0.7-0.1,1.4-0.3,1.9-0.7
		L158.9,54.1L158.9,54.1z M163.4,48.1c0-3.2-3-4.6-7.3-4.6c-4.6,0-7.1,2.3-7.1,4.1c0,0.5,0.2,0.9,0.6,1.3c0.4,0.3,0.8,0.5,1.3,0.5
		c1.8,0,1.9-2.4,5.2-2.4c1.5,0,2.8,0.5,2.8,1.9c0,1.3-0.9,1.5-1.9,1.7l-2.7,0.3c-3.4,0.4-6.3,1.4-6.3,5.2c0,2.8,2.5,4.6,5.1,4.6
		c1.2,0,2.3-0.2,3.4-0.6c1.1-0.5,2-1.2,2.8-2c0,0.4,0,0.7,0.2,1c0.1,0.3,0.3,0.6,0.6,0.9c0.3,0.2,0.6,0.4,0.9,0.6s0.7,0.2,1,0.1
		c0.2,0,0.5,0,0.7-0.1c0.2-0.1,0.5-0.2,0.6-0.4c0.2-0.2,0.3-0.4,0.5-0.6c0.1-0.2,0.2-0.5,0.2-0.7c-0.3-1-0.4-1.9-0.5-2.9V48.1z">
  </path>
  <path class="st0" d="M173.7,56.9c-2.4-0.1-3.5-2.3-3.5-4.9c0-2,0.7-4.9,3.5-4.9c2.8,0,3.6,2.7,3.6,4.9
		C177.3,54.5,176.4,56.9,173.7,56.9z M179.3,37.5c-0.3,0-0.6,0-0.9,0.1c-0.3,0.1-0.5,0.3-0.8,0.5c-0.2,0.2-0.4,0.5-0.5,0.8
		c-0.1,0.3-0.1,0.6-0.1,0.9v6.1H177c-0.5-0.7-1.1-1.3-1.9-1.7c-0.8-0.4-1.6-0.6-2.5-0.5c-4.7,0-6.9,4-6.9,8.3c0,5.8,3.3,8.5,7,8.5
		c2.2,0,4.1-0.9,4.7-2.8h0.1v0.7c0,0.3,0,0.6,0.1,0.8c0.1,0.3,0.2,0.5,0.4,0.7c0.2,0.2,0.4,0.4,0.7,0.5c0.3,0.1,0.5,0.1,0.8,0.1
		c1.3,0,2-0.7,2-2.1V39.8c0-0.3,0-0.6-0.1-0.9c-0.1-0.3-0.2-0.6-0.5-0.8c-0.2-0.2-0.5-0.4-0.8-0.5C180,37.5,179.7,37.5,179.3,37.5">
  </path>
  <path class="st0" d="M192,56.9c-2.6,0-3.6-2.3-3.6-4.9c0-2.3,0.9-5,3.6-4.9c2.7,0.1,3.5,2.9,3.5,4.9
		C195.6,54.6,194.5,56.8,192,56.9z M193.2,43.6c-0.9-0.1-1.7,0.1-2.5,0.5c-0.8,0.4-1.5,1-1.9,1.7v-6.1c0-0.6-0.2-1.2-0.7-1.6
		c-0.4-0.4-1-0.7-1.6-0.7s-1.2,0.2-1.6,0.7c-0.4,0.4-0.7,1-0.7,1.6v18.5c0,1.4,0.6,2.1,2,2.1c0.3,0,0.6,0,0.8-0.1
		c0.3-0.1,0.5-0.3,0.7-0.5c0.2-0.2,0.3-0.5,0.4-0.7c0.1-0.3,0.1-0.6,0.1-0.8v-0.7h0.1c0.8,1.9,2.5,2.8,4.7,2.8c3.7,0,7-2.7,7-8.5
		C200.2,47.5,198,43.6,193.2,43.6">
  </path>
  <path class="st0" d="M212.5,54.1c0,1.7-1.5,3.3-4,3.3c-1.5,0-2.5-0.8-2.5-1.8c0-1.4,1-1.9,2.9-2.2l1.6-0.2c0.7-0.1,1.4-0.3,2-0.7
		L212.5,54.1L212.5,54.1z M217,48.1c0-3.2-3-4.6-7.3-4.6c-4.6,0-7.1,2.3-7.1,4.1c0,0.5,0.2,0.9,0.6,1.3c0.4,0.3,0.8,0.5,1.3,0.5
		c1.8,0,1.9-2.4,5.2-2.4c1.5,0,2.8,0.5,2.8,1.9c0,1.3-0.9,1.5-1.9,1.7l-2.7,0.3c-3.4,0.4-6.3,1.4-6.3,5.2c0,2.8,2.5,4.6,5.1,4.6
		c1.2,0,2.3-0.2,3.4-0.6c1.1-0.5,2-1.2,2.8-2c0,0.4,0,0.7,0.2,1c0.1,0.3,0.3,0.6,0.6,0.9c0.3,0.2,0.6,0.4,0.9,0.6
		c0.3,0.1,0.7,0.2,1,0.1c0.2,0,0.5,0,0.7-0.1c0.2-0.1,0.5-0.2,0.6-0.4c0.2-0.2,0.3-0.4,0.5-0.6c0.1-0.2,0.2-0.5,0.2-0.7
		c-0.3-1-0.4-2-0.5-3L217,48.1L217,48.1z">
  </path>
  <path class="st0" d="M229.5,43.6c-1.1,0-2.1,0.2-3.1,0.7c-0.9,0.5-1.8,1.2-2.4,2.1H224v-0.6c0-1.4-0.6-2.3-2-2.3
		c-1.4,0-2,0.9-2,2.3v12.4c0,0.3,0.1,0.6,0.2,0.9c0.1,0.3,0.3,0.5,0.5,0.7c0.2,0.2,0.5,0.4,0.7,0.5c0.3,0.1,0.6,0.2,0.9,0.2
		c0.3,0,0.6-0.1,0.9-0.2c0.3-0.1,0.5-0.3,0.7-0.5c0.2-0.2,0.4-0.5,0.5-0.7c0.1-0.3,0.2-0.6,0.2-0.9v-7.4c0-0.5,0.1-0.9,0.2-1.3
		c0.2-0.4,0.4-0.8,0.7-1.1c0.3-0.3,0.7-0.6,1.1-0.8c0.4-0.2,0.9-0.3,1.3-0.3c1.9,0,2.8,1.3,2.8,3.1v7.8c0,0.6,0.2,1.2,0.7,1.6
		c0.4,0.4,1,0.7,1.6,0.7c0.6,0,1.2-0.2,1.6-0.7c0.4-0.4,0.7-1,0.7-1.6v-8.7C235.1,44.9,232.1,43.6,229.5,43.6">
  </path>
  <path class="st0" d="M245.2,56.9c-2.4-0.1-3.5-2.3-3.5-4.9c0-2,0.7-4.9,3.5-4.9c2.8,0,3.6,2.7,3.6,4.9
		C248.8,54.5,247.7,56.9,245.2,56.9z M250.8,37.5c-0.3,0-0.6,0-0.9,0.1c-0.3,0.1-0.5,0.3-0.8,0.5c-0.2,0.2-0.4,0.5-0.5,0.8
		c-0.1,0.3-0.1,0.6-0.1,0.9v6.1h-0.1c-0.5-0.7-1.1-1.3-1.9-1.7c-0.8-0.4-1.6-0.6-2.5-0.5c-4.7,0-6.9,4-6.9,8.3c0,5.8,3.3,8.5,7,8.5
		c2.2,0,4.1-0.9,4.7-2.8h0.1v0.7c0,0.3,0,0.6,0.1,0.8c0.1,0.3,0.2,0.5,0.4,0.7c0.2,0.2,0.4,0.4,0.7,0.5c0.3,0.1,0.5,0.1,0.8,0.1
		c1.4,0,2-0.7,2-2.1V39.8c0-0.3,0-0.6-0.1-0.9c-0.1-0.3-0.2-0.6-0.5-0.8c-0.2-0.2-0.5-0.4-0.8-0.5C251.4,37.5,251.1,37.5,250.8,37.5
		">
  </path>
  <path class="st1" d="M13.5,12c-0.5-0.5-1.2-0.7-1.9-0.6c-0.7,0.1-1.4,0.4-1.8,0.9c-3.7,4.3-6.9,9.1-9.5,14.2
		c-0.3,0.6-0.4,1.4-0.2,2c0.2,0.7,0.7,1.2,1.3,1.6c0.4,0.2,0.8,0.3,1.2,0.3c0.5,0,1-0.1,1.4-0.4c0.4-0.3,0.8-0.6,1-1.1
		c2.4-4.7,5.4-9.1,8.8-13.1c0.2-0.3,0.4-0.6,0.5-0.9c0.1-0.3,0.1-0.7,0.1-1c0-0.3-0.1-0.7-0.3-1C14,12.5,13.8,12.2,13.5,12z">
  </path>
  <path class="st1" d="M57.3,42.6c2.7-1.4,5.6-2.1,8.7-2.1c1.6,0,3.1,0.2,4.6,0.6c1.3,0.3,2.6,0.3,3.9-0.1c1.3-0.4,2.4-1.1,3.3-2
		c0.9-1,1.6-2.1,1.9-3.4c0.3-1.3,0.3-2.6-0.1-3.9c-0.3-1.3-1-2.4-2-3.3c-1-0.9-2.1-1.6-3.4-1.9c-2.7-0.7-5.4-1-8.2-1
		c-4.6,0-9.2,0.9-13.4,2.7c-4.2,1.8-8.1,4.4-11.2,7.7c-0.4,0.3-0.8,0.6-1.3,0.6c-0.5,0.1-1-0.1-1.4-0.3c-0.3-0.2-0.5-0.4-0.7-0.7
		c-0.2-0.3-0.3-0.6-0.3-0.9c0-0.3,0-0.7,0.1-1s0.3-0.6,0.5-0.9c6.3-6.4,14.7-10.5,23.7-11.4c1.4-0.2,2.8-0.8,3.9-1.7
		c1.1-0.9,2-2.1,2.4-3.5s0.5-2.8,0.1-4.2c-0.4-1.4-1.2-2.6-2.2-3.6c-0.8-0.7-1.7-1.2-2.8-1.6c-1-0.3-2.1-0.4-3.2-0.3
		c-9,0.9-17.7,4.1-25.1,9.3c-7.4,5.2-13.4,12.1-17.4,20.2c-0.3,0.5-0.7,0.9-1.3,1.1c-0.6,0.2-1.2,0.1-1.7-0.1
		c-0.5-0.2-0.9-0.7-1.1-1.2c-0.2-0.5-0.2-1.1,0-1.7c6.6-13.3,18-23.5,32-28.7c0.7-0.3,1.2-0.8,1.5-1.4c0.3-0.6,0.3-1.4,0.1-2
		c-0.2-0.7-0.7-1.2-1.4-1.5c-0.6-0.3-1.4-0.3-2-0.1C28.4,5.8,15.9,17,8.7,31.5C8.3,32.4,8,33.3,8,34.3c-0.1,1,0.1,2,0.4,2.9
		c0.7,1.9,2.2,3.5,4,4.4c1.8,0.8,3.8,0.9,5.7,0.3c1.9-0.6,3.4-2,4.3-3.7c3.6-7.3,9-13.6,15.7-18.2c6.7-4.7,14.5-7.5,22.6-8.4
		c0.6-0.1,1.2,0.1,1.7,0.4c0.5,0.4,0.8,0.9,0.9,1.5c0.1,0.6-0.1,1.2-0.4,1.7c-0.4,0.5-0.9,0.8-1.5,0.9c-10.2,1.1-19.8,5.7-26.9,13
		c-0.8,0.8-1.4,1.8-1.8,2.8c-0.4,1.1-0.5,2.2-0.3,3.3c0.2,1.4,0.7,2.8,1.6,3.9c0.9,1.1,2.1,1.9,3.4,2.4c1.4,0.5,2.8,0.5,4.2,0.2
		c1.4-0.3,2.7-1,3.7-2.1c2.7-2.8,5.9-5,9.4-6.5c3.6-1.5,7.4-2.3,11.3-2.3c2.3,0,4.6,0.3,6.9,0.8c0.4,0.1,0.7,0.3,1,0.5
		c0.3,0.3,0.5,0.6,0.6,1c0.1,0.4,0.1,0.8,0,1.1c-0.1,0.4-0.3,0.7-0.6,1c-0.2,0.3-0.6,0.5-0.9,0.6c-0.4,0.1-0.7,0.1-1.1,0.1
		C66.1,34.7,60,35.4,54.8,38c-1,0.5-1.9,1.3-2.6,2.2c-0.7,0.9-1.1,2-1.3,3.1c-0.2,1.1-0.2,2.3,0.2,3.4c0.3,1.1,0.9,2.1,1.7,3
		c0.7,0.8,1.6,1.4,2.6,1.8c1,0.4,2,0.6,3.1,0.6c1.2,0,2.4-0.3,3.5-0.8c1.2-0.6,2.5-0.9,3.8-0.9s2.7,0.2,3.9,0.8
		c0.6,0.3,1.4,0.3,2,0.1c0.7-0.3,1.2-0.8,1.5-1.4c0.3-0.6,0.3-1.4,0.1-2c-0.3-0.7-0.8-1.2-1.4-1.5c-2-0.8-4.1-1.2-6.2-1.2
		c-2.1,0.1-4.2,0.6-6.1,1.5c-0.4,0.2-0.8,0.3-1.2,0.3c-0.4,0-0.8-0.2-1.2-0.4s-0.6-0.6-0.8-1c-0.2-0.4-0.2-0.8-0.1-1.2
		c0.1-0.3,0.2-0.6,0.4-0.9C56.8,43,57,42.8,57.3,42.6">
  </path>
  <path class="st1" d="M65.7,55.3c-0.7,0-1.5,0.2-2.1,0.6c-0.6,0.4-1.1,1-1.4,1.7c-0.3,0.7-0.4,1.4-0.2,2.1c0.1,0.7,0.5,1.4,1,1.9
		c0.5,0.5,1.2,0.9,1.9,1c0.7,0.1,1.5,0.1,2.1-0.2c0.7-0.3,1.3-0.8,1.7-1.4c0.4-0.6,0.6-1.3,0.6-2c0-0.5-0.1-1-0.3-1.4
		c-0.2-0.4-0.5-0.9-0.8-1.2c-0.3-0.3-0.8-0.6-1.2-0.8C66.7,55.4,66.2,55.3,65.7,55.3z">
  </path>
  <path class="st1" d="M124.7,88c12.8-0.4,25.7-0.8,38.5-1.1l11-0.4c1.9-0.1,1.9-3,0-2.9c-12.8,0.4-25.7,0.8-38.5,1.1l-11,0.4
		C122.8,85.1,122.8,88.1,124.7,88L124.7,88z">
  </path>
  <path class="st0" d="M105.7,73.8v1.7h-2.4v7.1h-2.2v-7.1h-2.4v-1.7H105.7z">
  </path>
  <path class="st0" d="M114.5,73.8v8.8h-2.2V79h-3.4v3.6h-2.2v-8.8h2.2v3.5h3.4v-3.5H114.5z">
  </path>
  <path class="st0" d="M118.1,75.6v1.8h2.9V79h-2.9V81h3.3v1.7H116v-8.9h5.5v1.7H118.1z">
  </path>
  <path class="st0" d="M131.1,81.1h-3.4l-0.5,1.6h-2.3l3.2-8.8h2.5l3.2,8.8h-2.3L131.1,81.1z M130.6,79.4l-1.1-3.2l-1.1,3.2H130.6z">
  </path>
  <path class="st0" d="M134.5,75.9c0.4-0.7,0.9-1.2,1.6-1.6c0.7-0.4,1.5-0.6,2.3-0.6c1,0,1.9,0.3,2.7,0.8c0.8,0.6,1.3,1.4,1.5,2.3
		h-2.4c-0.2-0.4-0.4-0.6-0.8-0.8c-0.3-0.2-0.7-0.3-1.1-0.3c-0.3,0-0.6,0-0.9,0.2c-0.3,0.1-0.5,0.3-0.7,0.5c-0.4,0.5-0.6,1.2-0.6,1.8
		c0,0.7,0.2,1.3,0.6,1.8c0.2,0.2,0.5,0.4,0.7,0.5c0.3,0.1,0.6,0.2,0.9,0.2c0.4,0,0.8-0.1,1.1-0.3c0.3-0.2,0.6-0.5,0.8-0.8h2.4
		c-0.2,0.9-0.8,1.7-1.5,2.3c-0.8,0.6-1.7,0.9-2.7,0.8c-0.8,0-1.6-0.2-2.3-0.6c-0.7-0.4-1.2-0.9-1.6-1.6c-0.4-0.7-0.6-1.5-0.6-2.3
		S134.1,76.6,134.5,75.9z">
  </path>
  <path class="st0" d="M150.3,73.8v1.7h-2.4v7.1h-2.2v-7.1h-2.4v-1.7H150.3z">
  </path>
  <path class="st0" d="M153.7,73.8v5.3c0,0.4,0.1,0.9,0.4,1.2c0.2,0.1,0.3,0.3,0.5,0.3c0.2,0.1,0.4,0.1,0.6,0.1c0.2,0,0.4,0,0.6-0.1
		c0.2-0.1,0.4-0.2,0.5-0.3c0.3-0.3,0.4-0.8,0.4-1.2v-5.3h2.2v5.3c0,0.7-0.2,1.4-0.5,2c-0.3,0.5-0.8,1-1.4,1.2
		c-0.6,0.3-1.3,0.4-1.9,0.4c-0.7,0-1.3-0.1-1.9-0.4c-0.6-0.3-1-0.7-1.3-1.2c-0.3-0.6-0.5-1.3-0.5-2v-5.3H153.7z">
  </path>
  <path class="st0" d="M165.4,81.1h-3.3l-0.5,1.6h-2.2l3.2-8.8h2.5l3.2,8.8H166L165.4,81.1z M164.9,79.4l-1.1-3.2l-1.1,3.2H164.9z">
  </path>
  <path class="st0" d="M171.6,81h2.9v1.7h-5v-8.8h2.2V81z">
  </path>
  <path class="st0" d="M183.8,81.1h-3.3l-0.5,1.6h-2.2l3.2-8.8h2.5l3.2,8.8h-2.3L183.8,81.1z M183.2,79.4l-1.1-3.2l-1.1,3.2H183.2z">
  </path>
  <path class="st0" d="M189.2,73.8v5.3c0,0.4,0.1,0.9,0.4,1.2c0.2,0.1,0.3,0.3,0.5,0.3c0.2,0.1,0.4,0.1,0.6,0.1c0.2,0,0.4,0,0.6-0.1
		c0.2-0.1,0.4-0.2,0.5-0.3c0.3-0.3,0.4-0.8,0.4-1.2v-5.3h2.2v5.3c0,0.7-0.1,1.4-0.5,2c-0.3,0.5-0.8,1-1.4,1.2
		c-0.6,0.3-1.3,0.4-1.9,0.4c-0.7,0-1.3-0.1-1.9-0.4c-0.6-0.3-1-0.7-1.3-1.2c-0.3-0.6-0.5-1.3-0.5-2v-5.3H189.2z">
  </path>
  <path class="st0" d="M197.4,82.4c-0.5-0.2-0.9-0.5-1.2-0.9c-0.3-0.4-0.5-1-0.5-1.5h2.4c0,0.3,0.1,0.6,0.3,0.8
		c0.2,0.2,0.5,0.3,0.8,0.3c0.3,0,0.5-0.1,0.8-0.2c0.1-0.1,0.2-0.2,0.2-0.3s0.1-0.2,0.1-0.3c0-0.1,0-0.2-0.1-0.3
		c0-0.1-0.1-0.2-0.2-0.2c-0.2-0.2-0.3-0.3-0.6-0.4c-0.3-0.1-0.6-0.2-0.9-0.3c-0.5-0.1-1-0.3-1.4-0.5c-0.4-0.2-0.7-0.4-0.9-0.8
		c-0.3-0.4-0.4-0.9-0.4-1.3c0-0.4,0.1-0.7,0.2-1.1c0.2-0.3,0.4-0.6,0.7-0.9c0.7-0.5,1.5-0.7,2.4-0.7c0.9,0,1.7,0.2,2.4,0.7
		c0.3,0.2,0.6,0.5,0.7,0.9c0.2,0.3,0.3,0.7,0.3,1.1H200c0-0.1,0-0.3-0.1-0.4c-0.1-0.1-0.1-0.2-0.2-0.3c-0.2-0.2-0.5-0.3-0.8-0.2
		c-0.2,0-0.5,0.1-0.6,0.2c-0.1,0.1-0.1,0.2-0.2,0.3c0,0.1-0.1,0.2-0.1,0.3c0,0.1,0,0.3,0.1,0.4c0.1,0.1,0.2,0.2,0.3,0.3
		c0.4,0.2,0.8,0.4,1.3,0.5c0.5,0.2,0.9,0.3,1.4,0.6c0.4,0.2,0.7,0.4,0.9,0.8c0.3,0.4,0.4,0.8,0.4,1.3c0,0.5-0.1,1-0.4,1.4
		c-0.3,0.4-0.7,0.8-1.1,1c-0.5,0.3-1.1,0.4-1.7,0.4C198.6,82.8,198,82.7,197.4,82.4z">
  </path>
  <path class="st0" d="M205.1,82.4c-0.5-0.2-0.9-0.5-1.2-0.9c-0.3-0.4-0.5-1-0.5-1.5h2.3c0,0.3,0.1,0.6,0.3,0.8
		c0.2,0.2,0.5,0.3,0.8,0.3c0.3,0,0.5-0.1,0.8-0.2c0.1-0.1,0.2-0.2,0.2-0.3c0-0.1,0.1-0.2,0.1-0.3c0-0.1,0-0.2-0.1-0.3
		c0-0.1-0.1-0.2-0.2-0.2c-0.2-0.1-0.3-0.3-0.6-0.4c-0.3-0.1-0.6-0.2-0.9-0.3c-0.5-0.1-1-0.3-1.4-0.5c-0.4-0.2-0.7-0.4-0.9-0.8
		c-0.3-0.4-0.4-0.9-0.4-1.3c0-0.4,0.1-0.7,0.2-1.1c0.2-0.3,0.4-0.6,0.7-0.9c0.7-0.5,1.5-0.7,2.4-0.7c0.9,0,1.7,0.2,2.4,0.7
		c0.3,0.2,0.5,0.5,0.7,0.9c0.2,0.3,0.3,0.7,0.3,1.1h-2.4c0-0.1,0-0.3-0.1-0.4c-0.1-0.1-0.1-0.2-0.2-0.3c-0.2-0.2-0.5-0.3-0.8-0.2
		c-0.2,0-0.5,0.1-0.6,0.2c-0.1,0.1-0.1,0.2-0.2,0.3c0,0.1-0.1,0.2-0.1,0.3c0,0.1,0,0.3,0.1,0.4c0.1,0.1,0.2,0.2,0.3,0.3
		c0.4,0.2,0.8,0.4,1.3,0.5c0.5,0.2,0.9,0.3,1.4,0.6c0.4,0.2,0.7,0.4,0.9,0.8c0.3,0.4,0.4,0.8,0.4,1.3c0,0.5-0.1,1-0.4,1.4
		c-0.3,0.4-0.7,0.8-1.1,1c-0.5,0.3-1.1,0.4-1.7,0.4C206.3,82.8,205.7,82.7,205.1,82.4z">
  </path>
  <path class="st0" d="M213.6,73.8v8.8h-2.2v-8.8H213.6z">
  </path>
  <path class="st0" d="M217.4,75.6v1.8h2.9V79h-2.9V81h3.3v1.7h-5.5v-8.9h5.5v1.7H217.4z">
  </path>
  <path class="st0" d="M237.1,73.8l-2.3,8.8h-2.6l-1.4-5.8l-1.5,5.8h-2.6l-2.3-8.8h2.3l1.3,6.4l1.6-6.4h2.4l1.5,6.4l1.3-6.4H237.1z">
  </path>
  <path class="st0" d="M242.6,81.1h-3.3l-0.5,1.6h-2.3l3.3-8.8h2.5l3.2,8.8h-2.3L242.6,81.1z M242.1,79.4l-1.1-3.2l-1.1,3.2H242.1z">
  </path>
  <path class="st0" d="M253,73.8l-3.1,5.9v2.9h-2.2v-2.9l-3.1-5.9h2.5l1.7,3.7l1.7-3.7H253z">
  </path>
 </g>
</svg>