<?xml version="1.0" encoding="UTF-8" standalone="no"?>
<!-- Created with Inkscape (http://www.inkscape.org/) -->
<svg
   xmlns:svg="http://www.w3.org/2000/svg"
   xmlns="http://www.w3.org/2000/svg"
   version="1.0"
   width="193.59"
   height="42.554001"
   viewBox="0 0 193.59 42.554"
   id="Layer_1"
   xml:space="preserve"><defs
   id="defs2332" />
<rect
   width="193.59"
   height="42.554001"
   x="0"
   y="0"
   style="fill:#d71635"
   id="rect2297" />
<g
   id="g2299">
	<path
   d="M 123.937,23.79 C 126.013,23.79 127,23.65 126.999,22.055 C 126.999,20.384 125.986,20.181 123.937,20.181 L 116.213,20.185 L 116.213,15.614 L 123.706,15.614 C 126.518,15.613 128.566,15.84 130.06,16.828 C 131.758,17.967 132.568,19.638 132.568,21.941 C 132.568,25.991 130.112,28.245 125.556,28.246 L 122.063,28.246 L 122.063,33.815 L 116.217,33.816 L 116.215,23.79 L 123.937,23.79 L 123.937,23.79 z "
   style="fill:#ffffff"
   id="path2301" />
	<path
   d="M 142.665,29.737 C 145.144,29.736 146.208,28.141 146.208,24.722 C 146.208,21.306 145.145,19.71 142.664,19.711 C 140.184,19.711 139.096,21.307 139.096,24.724 C 139.096,28.141 140.186,29.737 142.665,29.737 M 142.664,15.13 C 148.511,15.129 152.106,18.799 152.106,24.722 C 152.108,30.646 148.513,34.317 142.666,34.318 C 136.818,34.318 133.198,30.648 133.196,24.725 C 133.196,18.801 136.814,15.13 142.664,15.13"
   style="fill:#ffffff"
   id="path2303" />
	<path
   d="M 158.863,27.784 C 159.015,29.38 159.992,29.987 161.588,29.987 C 163.006,29.987 163.79,29.455 163.79,28.67 C 163.79,27.531 162.727,27.431 160.574,26.874 C 158.042,26.216 156.398,25.658 155.639,25.127 C 154.22,24.115 153.536,22.722 153.536,20.926 C 153.535,17.407 156.32,15.128 161.179,15.128 C 165.889,15.127 168.819,17.239 169.006,21.202 L 163.462,21.203 C 163.447,19.783 162.496,19.253 161.079,19.253 C 159.84,19.254 159.231,19.659 159.231,20.495 C 159.231,21.457 160.168,21.634 161.939,22.089 C 164.192,22.671 165.991,23.025 167.155,23.81 C 168.75,24.872 169.484,26.189 169.484,28.062 C 169.486,32.011 166.649,34.316 161.334,34.316 C 156.447,34.317 153.392,32.004 153.214,27.785 L 158.863,27.784 z "
   style="fill:#ffffff"
   id="path2305" />
	<polygon
   points="174.799,20.391 169.559,20.392 169.559,15.607 185.783,15.606 185.785,20.391 180.646,20.391 180.647,33.808 174.8,33.808 174.799,20.391 "
   style="fill:#ffffff"
   id="polygon2307" />
	<path
   d="M 93.622,12.805 C 89.007,14.194 85.646,18.476 85.647,23.544 C 85.648,28.611 89.012,32.891 93.628,34.277 L 93.622,12.805 z "
   style="fill:#ffffff"
   id="path2309" />
	<path
   d="M 96.854,12.33 C 96.592,12.33 96.333,12.34 96.075,12.358 L 96.076,13.508 C 96.227,13.498 96.384,13.492 96.538,13.492 C 100.39,13.491 103.514,16.613 103.515,20.465 C 103.516,24.288 100.439,27.394 96.625,27.44 L 96.627,34.747 C 96.705,34.748 96.782,34.75 96.861,34.75 C 103.052,34.748 108.068,29.727 108.068,23.536 C 108.064,17.346 103.044,12.328 96.854,12.33"
   style="fill:#ffffff"
   id="path2311" />
	<path
   d="M 118.155,8.827 L 117.487,11.043 L 118.8,11.043 L 118.155,8.827 z M 117.288,11.743 L 116.937,12.974 L 116.103,12.974 L 117.725,7.807 L 118.602,7.807 L 120.181,12.974 L 119.341,12.974 L 119.003,11.743 L 117.288,11.743"
   style="fill:#ffffff;fill-rule:evenodd"
   id="path2313" />
	<path
   d="M 121.117,7.807 L 121.117,10.918 L 121.117,11.066 C 121.117,11.636 121.14,12.071 121.424,12.467 C 121.719,12.875 122.122,13.058 122.737,13.058 C 123.261,13.058 123.642,12.932 123.9,12.673 C 124.217,12.357 124.363,11.835 124.363,11.03 L 124.363,7.807 L 123.62,7.807 L 123.62,11.024 L 123.62,11.136 C 123.62,11.528 123.612,11.801 123.488,12.009 C 123.331,12.272 123.084,12.399 122.737,12.399 C 122.39,12.399 122.154,12.276 121.994,12.009 C 121.863,11.794 121.854,11.521 121.854,11.128 L 121.854,11.024 L 121.854,7.807 L 121.117,7.807 z "
   style="fill:#ffffff"
   id="path2315" />
	<path
   d="M 125.588,11.459 C 125.588,11.487 125.586,11.513 125.585,11.538 C 125.582,11.564 125.58,11.588 125.58,11.614 C 125.58,12.075 125.704,12.431 125.946,12.673 C 126.201,12.928 126.592,13.058 127.109,13.058 C 127.64,13.058 128.052,12.917 128.329,12.638 C 128.58,12.387 128.708,12.041 128.708,11.607 C 128.708,10.969 128.309,10.66 127.699,10.264 L 127.416,10.08 C 126.779,9.674 126.43,9.45 126.43,8.991 C 126.43,8.83 126.493,8.679 126.607,8.564 C 126.744,8.428 126.942,8.353 127.165,8.353 C 127.386,8.353 127.554,8.411 127.667,8.525 C 127.795,8.654 127.86,8.856 127.86,9.125 L 127.86,9.23 L 127.86,9.281 L 127.912,9.281 L 128.608,9.281 L 128.66,9.281 L 128.66,9.23 L 128.66,9.103 C 128.66,8.675 128.539,8.339 128.303,8.102 C 128.052,7.85 127.679,7.723 127.196,7.723 C 126.269,7.723 125.646,8.264 125.646,9.068 C 125.646,9.819 126.042,10.108 126.802,10.595 L 127.009,10.726 C 127.579,11.082 127.925,11.298 127.925,11.705 C 127.925,12.124 127.589,12.427 127.124,12.427 C 126.902,12.427 126.74,12.375 126.632,12.265 C 126.497,12.13 126.431,11.896 126.431,11.55 L 126.431,11.459 L 126.431,11.407 L 126.379,11.407 L 125.642,11.407 L 125.589,11.407 L 125.589,11.459 L 125.588,11.459 z "
   style="fill:#ffffff"
   id="path2317" />
	<polygon
   points="131.195,8.431 131.195,12.974 130.425,12.974 130.425,8.431 129.18,8.431 129.18,7.807 132.404,7.807 132.404,8.431 131.195,8.431 "
   style="fill:#ffffff;fill-rule:evenodd"
   id="polygon2319" />
	<path
   d="M 135.392,8.618 C 135.272,8.498 135.083,8.437 134.832,8.437 L 134.132,8.437 L 134.132,10.008 L 134.571,10.008 C 135.28,10.008 135.569,9.763 135.569,9.16 C 135.569,8.917 135.51,8.735 135.392,8.618 M 135.61,10.299 C 136.107,10.428 136.22,10.824 136.22,11.375 C 136.22,11.48 136.217,11.577 136.217,11.669 C 136.214,11.746 136.212,11.821 136.212,11.888 C 136.212,12.268 136.256,12.601 136.344,12.908 L 136.363,12.974 L 136.295,12.974 L 135.606,12.974 L 135.569,12.974 L 135.558,12.937 C 135.451,12.59 135.448,12.202 135.444,11.792 C 135.441,11.652 135.441,11.506 135.435,11.354 C 135.42,10.828 135.287,10.659 134.883,10.659 L 134.132,10.659 L 134.132,12.921 L 134.132,12.973 L 134.079,12.973 L 133.412,12.973 L 133.36,12.973 L 133.36,12.921 L 133.36,7.858 L 133.36,7.807 L 133.412,7.807 L 134.74,7.807 C 135.358,7.807 135.781,7.93 136.034,8.184 C 136.24,8.39 136.338,8.681 136.338,9.075 C 136.338,9.696 136.1,10.096 135.61,10.299"
   style="fill:#ffffff;fill-rule:evenodd"
   id="path2321" />
	<path
   d="M 139.315,8.827 L 138.647,11.043 L 139.957,11.043 L 139.315,8.827 z M 140.163,11.743 L 138.447,11.743 L 138.095,12.974 L 137.262,12.974 L 138.884,7.807 L 139.761,7.807 L 141.341,12.974 L 140.5,12.974 L 140.163,11.743"
   style="fill:#ffffff;fill-rule:evenodd"
   id="path2323" />
	<polygon
   points="143.111,12.287 143.111,7.807 142.349,7.807 142.349,12.974 144.842,12.974 144.842,12.287 143.111,12.287 "
   style="fill:#ffffff;fill-rule:evenodd"
   id="polygon2325" />
	<polygon
   points="145.687,12.974 146.368,12.974 146.422,12.974 146.422,12.922 146.422,7.858 146.422,7.807 146.368,7.807 145.687,7.807 145.637,7.807 145.637,7.858 145.637,12.922 145.637,12.974 145.687,12.974 "
   style="fill:#ffffff"
   id="polygon2327" />
	<path
   d="M 149.476,8.827 L 148.807,11.043 L 150.119,11.043 L 149.476,8.827 z M 150.324,11.743 L 148.608,11.743 L 148.256,12.974 L 147.423,12.974 L 149.044,7.807 L 149.923,7.807 L 151.5,12.974 L 150.66,12.974 L 150.324,11.743"
   style="fill:#ffffff;fill-rule:evenodd"
   id="path2329" />
</g>
</svg>