<?xml version="1.0" encoding="UTF-8" standalone="no"?>
<!-- Created with Inkscape (http://www.inkscape.org/) -->

<svg
   width="632.66315"
   height="72.96933"
   viewBox="0 0 632.66315 72.96933"
   version="1.1"
   id="svg1"
   xmlns="http://www.w3.org/2000/svg"
   xmlns:svg="http://www.w3.org/2000/svg">
  <defs
     id="defs1" />
  <g
     id="g160"
     transform="translate(239.0406,-330.19101)"
     style="display:inline">
    <rect
       style="display:inline;fill:none;fill-opacity:1;stroke:none;stroke-width:3.06855;stroke-linecap:square;stroke-linejoin:round;stroke-dasharray:none;stroke-opacity:1;paint-order:normal"
       id="rect2240"
       width="410.5271"
       height="90"
       x="-111.94884"
       y="334.85138" />
    <g
       id="g2272"
       transform="translate(11.2693,330.30321)"
       style="display:none">
      <g
         id="g2254"
         transform="matrix(-1,0,0,1,117.34441,0)">
        <path
           style="fill:#222222;fill-opacity:1;stroke:#ffffff;stroke-width:2;stroke-dasharray:none;stroke-opacity:1"
           d="M 45.290127,42.531665 C 51.746772,39.482038 80.63011,40.781346 80.63011,40.781346 l 24.53123,0.193204 c 2.54632,0.08412 2.73862,0.892779 2.76127,2.070437 l -0.22022,37.880471 c -0.0714,0.632335 0.32664,1.392679 -1.52911,1.538364 L 13.998905,83.063659 C 8.0098318,82.787019 9.5582192,70.569579 9.724331,65.585954 c 0.1558463,-4.675642 3.33677,-4.991712 7.42547,-5.016028 1.93561,-0.01151 5.85115,-0.226581 8.746447,-1.676767 5.808219,-2.909201 5.127532,-9.623158 19.393879,-16.361494 z"
           id="path2247" />
        <path
           style="fill:#cccccc;fill-opacity:1;stroke:#fefefe;stroke-width:0.6;stroke-dasharray:none;stroke-opacity:1"
           d="m 27.938326,58.892741 c 2.976104,-6.819446 9.376109,-10.547233 14.395063,-13.769109 4.360974,-2.799491 9.798653,-3.457298 15.050785,-3.194357 l -1.123697,16.431508 c -8.852619,0.188957 -20.749984,0.714744 -28.322151,0.531958 z"
           id="path2248" />
        <path
           style="fill:#e6e6e6;fill-opacity:1;stroke:#ffffff;stroke-width:1;stroke-dasharray:none;stroke-opacity:1"
           d="m 17.985083,61.486314 c -1.541414,-0.462382 -3.657424,-0.577726 -4.917927,-0.02814 -4.4828939,1.871995 -3.1782595,10.573215 3.049037,5.838126 1.649036,-1.337996 1.651344,-4.50512 1.86889,-5.809985 z"
           id="path2249" />
        <g
           id="g2252"
           transform="translate(5.0785695,-17.492851)"
           style="fill:#b3b3b3;stroke:#a7a7a7;stroke-opacity:1">
          <rect
             style="fill:#b3b3b3;fill-opacity:1;stroke:#a7a7a7;stroke-width:1;stroke-dasharray:none;stroke-opacity:1"
             id="rect2249"
             width="2.3889101"
             height="0.072391212"
             x="100.16518"
             y="90.127861" />
          <rect
             style="fill:#b3b3b3;fill-opacity:1;stroke:#a7a7a7;stroke-width:1;stroke-dasharray:none;stroke-opacity:1"
             id="rect2250"
             width="2.3889101"
             height="0.072391212"
             x="100.17001"
             y="91.861954" />
          <rect
             style="fill:#b3b3b3;fill-opacity:1;stroke:#a7a7a7;stroke-width:1;stroke-dasharray:none;stroke-opacity:1"
             id="rect2251"
             width="2.3889101"
             height="0.072391212"
             x="100.13805"
             y="93.744125" />
          <rect
             style="fill:#b3b3b3;fill-opacity:1;stroke:#a7a7a7;stroke-width:1;stroke-dasharray:none;stroke-opacity:1"
             id="rect2252"
             width="2.3889101"
             height="0.072391212"
             x="100.13805"
             y="95.502289" />
        </g>
        <path
           style="fill:#f9f9f9;fill-opacity:1;stroke:#ffffff;stroke-width:1;stroke-dasharray:none;stroke-opacity:1"
           d="m 60.524825,33.983178 c -6.434504,6.982121 -6.434504,6.982121 -6.434504,6.982121"
           id="path2252" />
        <ellipse
           style="fill:#f9f9f9;fill-opacity:1;stroke:none;stroke-width:2.12715;stroke-dasharray:none;stroke-opacity:1"
           id="ellipse2252"
           cx="61.422585"
           cy="32.991543"
           rx="1.640442"
           ry="1.6347624" />
        <rect
           style="fill:#cccccc;fill-opacity:1;stroke:#ffffff;stroke-width:0.5;stroke-linecap:square;stroke-linejoin:round;stroke-dasharray:none;stroke-opacity:1;paint-order:normal"
           id="rect2253"
           width="41.301456"
           height="14.532753"
           x="63.291321"
           y="45.147575"
           ry="2.6473935" />
        <rect
           style="fill:#b3b3b3;fill-opacity:1;stroke:#ffffff;stroke-width:0.5;stroke-linecap:square;stroke-linejoin:round;stroke-dasharray:none;stroke-opacity:1;paint-order:normal"
           id="rect2254"
           width="38.650833"
           height="1.3236586"
           x="42.27338"
           y="79.796059"
           ry="0.66182929" />
      </g>
    </g>
    <g
       id="g2298"
       transform="matrix(0.74639984,0,0,0.74639984,340.52014,228.06174)"
       style="display:none">
      <path
         style="fill:#ffffff;fill-opacity:1;stroke:#000000;stroke-width:3;stroke-linecap:square;stroke-linejoin:round;stroke-dasharray:none;stroke-opacity:1;paint-order:normal"
         d="M -178.96521,156.86539 V 259.99788"
         id="path2281" />
      <path
         style="fill:#ffffff;fill-opacity:1;stroke:#000000;stroke-width:2.11663;stroke-linecap:square;stroke-linejoin:round;stroke-dasharray:none;stroke-opacity:1;paint-order:normal"
         d="m -193.84686,178.48087 h 21.57083"
         id="path2282" />
      <path
         style="fill:#ffffff;fill-opacity:1;stroke:#000000;stroke-width:2.70051;stroke-linecap:square;stroke-linejoin:round;stroke-dasharray:none;stroke-opacity:1;paint-order:normal"
         d="m -179.98066,188.06514 h -24.93017"
         id="path2283" />
      <path
         style="fill:#ffffff;fill-opacity:1;stroke:#000000;stroke-width:3;stroke-linecap:square;stroke-linejoin:round;stroke-dasharray:none;stroke-opacity:1;paint-order:normal"
         d="m -178.96521,200.19837 h 23.83314"
         id="path2284" />
      <path
         style="fill:none;fill-opacity:1;stroke:#000000;stroke-width:1;stroke-linecap:square;stroke-linejoin:round;stroke-dasharray:none;stroke-opacity:1;paint-order:normal"
         d="m -178.8942,210.83368 c 0,0 10.26036,0.33098 15.39053,-10.92231"
         id="path2285" />
      <path
         style="fill:none;fill-opacity:1;stroke:#000000;stroke-width:1;stroke-linecap:square;stroke-linejoin:round;stroke-dasharray:none;stroke-opacity:1;paint-order:normal"
         d="m -201.18894,189.37673 c 0,0 8.00528,15.18793 22.51483,6.0779"
         id="path2286" />
      <path
         style="fill:none;fill-opacity:1;stroke:#000000;stroke-width:2.58805;stroke-linecap:square;stroke-linejoin:round;stroke-dasharray:none;stroke-opacity:1;paint-order:normal"
         d="m -186.50295,156.64101 h 15.30709"
         id="path2287" />
      <path
         style="fill:none;fill-opacity:1;stroke:#000000;stroke-width:2.4886;stroke-linecap:square;stroke-linejoin:round;stroke-dasharray:none;stroke-opacity:1;paint-order:normal"
         d="m -182.82367,152.94099 v 2.8642"
         id="path2288" />
      <path
         style="fill:none;fill-opacity:1;stroke:#000000;stroke-width:2.4886;stroke-linecap:square;stroke-linejoin:round;stroke-dasharray:none;stroke-opacity:1;paint-order:normal"
         d="m -174.27574,152.68583 v 2.8642"
         id="path2289" />
      <path
         style="fill:#ffffff;fill-opacity:1;stroke:#000000;stroke-width:3;stroke-linecap:square;stroke-linejoin:round;stroke-dasharray:none;stroke-opacity:1;paint-order:normal"
         d="M -178.96521,156.86539 V 259.99788"
         id="path2290" />
      <path
         style="fill:#ffffff;fill-opacity:1;stroke:#000000;stroke-width:2.11663;stroke-linecap:square;stroke-linejoin:round;stroke-dasharray:none;stroke-opacity:1;paint-order:normal"
         d="m -193.84686,178.48087 h 21.57083"
         id="path2291" />
      <path
         style="fill:#ffffff;fill-opacity:1;stroke:#000000;stroke-width:2.70051;stroke-linecap:square;stroke-linejoin:round;stroke-dasharray:none;stroke-opacity:1;paint-order:normal"
         d="m -179.98066,188.06514 h -24.93017"
         id="path2292" />
      <path
         style="fill:#ffffff;fill-opacity:1;stroke:#000000;stroke-width:3;stroke-linecap:square;stroke-linejoin:round;stroke-dasharray:none;stroke-opacity:1;paint-order:normal"
         d="m -178.96521,200.19837 h 23.83314"
         id="path2293" />
      <path
         style="fill:none;fill-opacity:1;stroke:#000000;stroke-width:1;stroke-linecap:square;stroke-linejoin:round;stroke-dasharray:none;stroke-opacity:1;paint-order:normal"
         d="m -178.8942,210.83368 c 0,0 10.26036,0.33098 15.39053,-10.92231"
         id="path2294" />
      <path
         style="fill:none;fill-opacity:1;stroke:#000000;stroke-width:1;stroke-linecap:square;stroke-linejoin:round;stroke-dasharray:none;stroke-opacity:1;paint-order:normal"
         d="m -201.18894,189.37673 c 0,0 8.00528,15.18793 22.51483,6.0779"
         id="path2295" />
      <path
         style="fill:none;fill-opacity:1;stroke:#000000;stroke-width:2.58805;stroke-linecap:square;stroke-linejoin:round;stroke-dasharray:none;stroke-opacity:1;paint-order:normal"
         d="m -186.50295,156.64101 h 15.30709"
         id="path2296" />
      <path
         style="fill:none;fill-opacity:1;stroke:#000000;stroke-width:2.4886;stroke-linecap:square;stroke-linejoin:round;stroke-dasharray:none;stroke-opacity:1;paint-order:normal"
         d="m -182.82367,152.94099 v 2.8642"
         id="path2297" />
      <path
         style="fill:none;fill-opacity:1;stroke:#000000;stroke-width:2.4886;stroke-linecap:square;stroke-linejoin:round;stroke-dasharray:none;stroke-opacity:1;paint-order:normal"
         d="m -174.27574,152.68583 v 2.8642"
         id="path2298" />
    </g>
  </g>
  <g
     id="g139"
     transform="translate(225.6075,-330.19101)">
    <path
       style="fill:#ffffff;fill-opacity:1;stroke:#ffffff;stroke-width:0.746;stroke-linecap:square;stroke-linejoin:round;stroke-dasharray:none;stroke-opacity:1"
       id="path1"
       d="m -22.204393,351.81627 -12.127828,-2.37843 -1.256168,11.74412 -4.004136,-11.69222 -10.798791,4.78419 8.123692,-9.3138 -9.542624,-6.95993 12.127828,2.37843 1.256168,-11.74412 4.004136,11.69222 10.798791,-4.78419 -8.123691,9.31379 z"
       transform="matrix(0.2175463,-0.09837034,0.09837034,0.2175463,71.589202,260.44833)" />
    <path
       style="fill:#ffffff;fill-opacity:1;stroke:#ffffff;stroke-width:0.746;stroke-linecap:square;stroke-linejoin:round;stroke-dasharray:none;stroke-opacity:1"
       id="path2"
       d="m -22.204393,351.81627 -12.127828,-2.37843 -1.256168,11.74412 -4.004136,-11.69222 -10.798791,4.78419 8.123692,-9.3138 -9.542624,-6.95993 12.127828,2.37843 1.256168,-11.74412 4.004136,11.69222 10.798791,-4.78419 -8.123691,9.31379 z"
       transform="matrix(0.18709668,0,0,0.18709668,-36.319357,310.19074)" />
    <path
       style="fill:#ffffff;fill-opacity:1;stroke:#ffffff;stroke-width:0.746;stroke-linecap:square;stroke-linejoin:round;stroke-dasharray:none;stroke-opacity:1"
       id="path3"
       d="m -22.204393,351.81627 -12.127828,-2.37843 -1.256168,11.74412 -4.004136,-11.69222 -10.798791,4.78419 8.123692,-9.3138 -9.542624,-6.95993 12.127828,2.37843 1.256168,-11.74412 4.004136,11.69222 10.798791,-4.78419 -8.123691,9.31379 z"
       transform="matrix(0.18015278,0.05049895,-0.05049895,0.18015278,-5.3731541,283.12922)" />
    <path
       style="fill:#ffffff;fill-opacity:1;stroke:#ffffff;stroke-width:0.746;stroke-linecap:square;stroke-linejoin:round;stroke-dasharray:none;stroke-opacity:1"
       id="path4"
       d="m -22.204393,351.81627 -12.127828,-2.37843 -1.256168,11.74412 -4.004136,-11.69222 -10.798791,4.78419 8.123692,-9.3138 -9.542624,-6.95993 12.127828,2.37843 1.256168,-11.74412 4.004136,11.69222 10.798791,-4.78419 -8.123691,9.31379 z"
       transform="matrix(0.14308546,0,0,0.14308546,-16.091073,308.77455)" />
    <path
       style="fill:#ffffff;fill-opacity:1;stroke:#ffffff;stroke-width:0.746;stroke-linecap:square;stroke-linejoin:round;stroke-dasharray:none;stroke-opacity:1"
       id="path5"
       d="m -22.204393,351.81627 -12.127828,-2.37843 -1.256168,11.74412 -4.004136,-11.69222 -10.798791,4.78419 8.123692,-9.3138 -9.542624,-6.95993 12.127828,2.37843 1.256168,-11.74412 4.004136,11.69222 10.798791,-4.78419 -8.123691,9.31379 z"
       transform="matrix(0.08840839,0,0,0.08840839,-48.181161,323.12432)" />
    <path
       style="fill:#ffffff;fill-opacity:1;stroke:#ffffff;stroke-width:0.746;stroke-linecap:square;stroke-linejoin:round;stroke-dasharray:none;stroke-opacity:1"
       id="path6"
       d="m -22.204393,351.81627 -12.127828,-2.37843 -1.256168,11.74412 -4.004136,-11.69222 -10.798791,4.78419 8.123692,-9.3138 -9.542624,-6.95993 12.127828,2.37843 1.256168,-11.74412 4.004136,11.69222 10.798791,-4.78419 -8.123691,9.31379 z"
       transform="matrix(0.09721081,0,0,0.09721081,-41.714081,317.15768)" />
    <path
       style="fill:#ffffff;fill-opacity:1;stroke:#ffffff;stroke-width:0.746;stroke-linecap:square;stroke-linejoin:round;stroke-dasharray:none;stroke-opacity:1"
       id="path7"
       d="m -22.204393,351.81627 -12.127828,-2.37843 -1.256168,11.74412 -4.004136,-11.69222 -10.798791,4.78419 8.123692,-9.3138 -9.542624,-6.95993 12.127828,2.37843 1.256168,-11.74412 4.004136,11.69222 10.798791,-4.78419 -8.123691,9.31379 z"
       transform="matrix(0.0800672,0.09989084,-0.09989084,0.0800672,-22.755965,320.28537)" />
    <path
       style="fill:#ffffff;fill-opacity:1;stroke:#ffffff;stroke-width:0.746;stroke-linecap:square;stroke-linejoin:round;stroke-dasharray:none;stroke-opacity:1"
       id="path8"
       d="m -22.204393,351.81627 -12.127828,-2.37843 -1.256168,11.74412 -4.004136,-11.69222 -10.798791,4.78419 8.123692,-9.3138 -9.542624,-6.95993 12.127828,2.37843 1.256168,-11.74412 4.004136,11.69222 10.798791,-4.78419 -8.123691,9.31379 z"
       transform="matrix(0.11446817,0,0,0.11446817,57.463594,323.80048)" />
    <path
       style="fill:#ffffff;fill-opacity:1;stroke:#ffffff;stroke-width:0.746;stroke-linecap:square;stroke-linejoin:round;stroke-dasharray:none;stroke-opacity:1"
       id="path9"
       d="m -22.204393,351.81627 -12.127828,-2.37843 -1.256168,11.74412 -4.004136,-11.69222 -10.798791,4.78419 8.123692,-9.3138 -9.542624,-6.95993 12.127828,2.37843 1.256168,-11.74412 4.004136,11.69222 10.798791,-4.78419 -8.123691,9.31379 z"
       transform="matrix(0.14707923,0,0,0.14707923,-78.831847,312.76021)" />
    <path
       style="fill:#ffffff;fill-opacity:1;stroke:#ffffff;stroke-width:0.746;stroke-linecap:square;stroke-linejoin:round;stroke-dasharray:none;stroke-opacity:1"
       id="path10"
       d="m -22.204393,351.81627 -12.127828,-2.37843 -1.256168,11.74412 -4.004136,-11.69222 -10.798791,4.78419 8.123692,-9.3138 -9.542624,-6.95993 12.127828,2.37843 1.256168,-11.74412 4.004136,11.69222 10.798791,-4.78419 -8.123691,9.31379 z"
       transform="matrix(0.19227066,0.02962336,-0.02962336,0.19227066,14.536015,281.58296)" />
    <path
       style="fill:#ffffff;fill-opacity:1;stroke:#ffffff;stroke-width:0.746;stroke-linecap:square;stroke-linejoin:round;stroke-dasharray:none;stroke-opacity:1"
       id="path11"
       d="m -22.204393,351.81627 -12.127828,-2.37843 -1.256168,11.74412 -4.004136,-11.69222 -10.798791,4.78419 8.123692,-9.3138 -9.542624,-6.95993 12.127828,2.37843 1.256168,-11.74412 4.004136,11.69222 10.798791,-4.78419 -8.123691,9.31379 z"
       transform="matrix(0.17725962,-0.08015346,0.08015346,0.17725962,57.673207,287.48057)" />
    <path
       style="fill:#ffffff;fill-opacity:1;stroke:#ffffff;stroke-width:0.746;stroke-linecap:square;stroke-linejoin:round;stroke-dasharray:none;stroke-opacity:1"
       id="path12"
       d="m -22.204393,351.81627 -12.127828,-2.37843 -1.256168,11.74412 -4.004136,-11.69222 -10.798791,4.78419 8.123692,-9.3138 -9.542624,-6.95993 12.127828,2.37843 1.256168,-11.74412 4.004136,11.69222 10.798791,-4.78419 -8.123691,9.31379 z"
       transform="matrix(0.14801689,-0.06693045,0.06693045,0.14801689,-26.38239,329.48903)" />
    <path
       style="fill:#ffffff;fill-opacity:1;stroke:#ffffff;stroke-width:0.746;stroke-linecap:square;stroke-linejoin:round;stroke-dasharray:none;stroke-opacity:1"
       id="path13"
       d="m -22.204393,351.81627 -12.127828,-2.37843 -1.256168,11.74412 -4.004136,-11.69222 -10.798791,4.78419 8.123692,-9.3138 -9.542624,-6.95993 12.127828,2.37843 1.256168,-11.74412 4.004136,11.69222 10.798791,-4.78419 -8.123691,9.31379 z"
       transform="matrix(0.17725962,-0.08015346,0.08015346,0.17725962,-36.603972,279.97638)" />
    <path
       style="fill:#ffffff;fill-opacity:1;stroke:#ffffff;stroke-width:0.746;stroke-linecap:square;stroke-linejoin:round;stroke-dasharray:none;stroke-opacity:1"
       id="path14"
       d="m -22.204393,351.81627 -12.127828,-2.37843 -1.256168,11.74412 -4.004136,-11.69222 -10.798791,4.78419 8.123692,-9.3138 -9.542624,-6.95993 12.127828,2.37843 1.256168,-11.74412 4.004136,11.69222 10.798791,-4.78419 -8.123691,9.31379 z"
       transform="matrix(0.17725962,-0.08015346,0.08015346,0.17725962,-53.460156,302.26739)" />
    <path
       style="fill:#ffffff;fill-opacity:1;stroke:#ffffff;stroke-width:0.746;stroke-linecap:square;stroke-linejoin:round;stroke-dasharray:none;stroke-opacity:1"
       id="path15"
       d="m -22.204393,351.81627 -12.127828,-2.37843 -1.256168,11.74412 -4.004136,-11.69222 -10.798791,4.78419 8.123692,-9.3138 -9.542624,-6.95993 12.127828,2.37843 1.256168,-11.74412 4.004136,11.69222 10.798791,-4.78419 -8.123691,9.31379 z"
       transform="matrix(0.17725962,-0.08015346,0.08015346,0.17725962,-27.062846,302.36645)" />
    <path
       style="fill:#ffffff;fill-opacity:1;stroke:#ffffff;stroke-width:0.746;stroke-linecap:square;stroke-linejoin:round;stroke-dasharray:none;stroke-opacity:1"
       id="path16"
       d="m -22.204393,351.81627 -12.127828,-2.37843 -1.256168,11.74412 -4.004136,-11.69222 -10.798791,4.78419 8.123692,-9.3138 -9.542624,-6.95993 12.127828,2.37843 1.256168,-11.74412 4.004136,11.69222 10.798791,-4.78419 -8.123691,9.31379 z"
       transform="matrix(0.10624156,-0.04804043,0.04804043,0.10624156,1.0080305,338.23676)" />
    <path
       style="fill:#ffffff;fill-opacity:1;stroke:#ffffff;stroke-width:0.746;stroke-linecap:square;stroke-linejoin:round;stroke-dasharray:none;stroke-opacity:1"
       id="path17"
       d="m -22.204393,351.81627 -12.127828,-2.37843 -1.256168,11.74412 -4.004136,-11.69222 -10.798791,4.78419 8.123692,-9.3138 -9.542624,-6.95993 12.127828,2.37843 1.256168,-11.74412 4.004136,11.69222 10.798791,-4.78419 -8.123691,9.31379 z"
       transform="matrix(0.03249548,-0.13568514,0.13568514,0.03249548,7.2587457,321.98053)" />
    <path
       style="fill:#ffffff;fill-opacity:1;stroke:#ffffff;stroke-width:0.746;stroke-linecap:square;stroke-linejoin:round;stroke-dasharray:none;stroke-opacity:1"
       id="path18"
       d="m -22.204393,351.81627 -12.127828,-2.37843 -1.256168,11.74412 -4.004136,-11.69222 -10.798791,4.78419 8.123692,-9.3138 -9.542624,-6.95993 12.127828,2.37843 1.256168,-11.74412 4.004136,11.69222 10.798791,-4.78419 -8.123691,9.31379 z"
       transform="matrix(0.0634177,0.12234038,-0.12234038,0.0634177,73.703343,360.99959)" />
    <path
       style="fill:#ffffff;fill-opacity:1;stroke:#ffffff;stroke-width:0.746;stroke-linecap:square;stroke-linejoin:round;stroke-dasharray:none;stroke-opacity:1"
       id="path19"
       d="m -22.204393,351.81627 -12.127828,-2.37843 -1.256168,11.74412 -4.004136,-11.69222 -10.798791,4.78419 8.123692,-9.3138 -9.542624,-6.95993 12.127828,2.37843 1.256168,-11.74412 4.004136,11.69222 10.798791,-4.78419 -8.123691,9.31379 z"
       transform="matrix(0.11877416,-0.05370743,0.05370743,0.11877416,-10.838119,326.13347)" />
    <path
       style="fill:#ffffff;fill-opacity:1;stroke:#ffffff;stroke-width:0.746;stroke-linecap:square;stroke-linejoin:round;stroke-dasharray:none;stroke-opacity:1"
       id="path20"
       d="m -22.204393,351.81627 -12.127828,-2.37843 -1.256168,11.74412 -4.004136,-11.69222 -10.798791,4.78419 8.123692,-9.3138 -9.542624,-6.95993 12.127828,2.37843 1.256168,-11.74412 4.004136,11.69222 10.798791,-4.78419 -8.123691,9.31379 z"
       transform="matrix(0.17725962,-0.08015346,0.08015346,0.17725962,11.802537,271.11633)" />
    <path
       style="fill:#ffffff;fill-opacity:1;stroke:#ffffff;stroke-width:0.746;stroke-linecap:square;stroke-linejoin:round;stroke-dasharray:none;stroke-opacity:1"
       id="path21"
       d="m -22.204393,351.81627 -12.127828,-2.37843 -1.256168,11.74412 -4.004136,-11.69222 -10.798791,4.78419 8.123692,-9.3138 -9.542624,-6.95993 12.127828,2.37843 1.256168,-11.74412 4.004136,11.69222 10.798791,-4.78419 -8.123691,9.31379 z"
       transform="matrix(0.17725962,-0.08015346,0.08015346,0.17725962,-77.470567,299.45831)" />
    <path
       style="fill:#ffffff;fill-opacity:1;stroke:#ffffff;stroke-width:0.746;stroke-linecap:square;stroke-linejoin:round;stroke-dasharray:none;stroke-opacity:1"
       id="path22"
       d="m -22.204393,351.81627 -12.127828,-2.37843 -1.256168,11.74412 -4.004136,-11.69222 -10.798791,4.78419 8.123692,-9.3138 -9.542624,-6.95993 12.127828,2.37843 1.256168,-11.74412 4.004136,11.69222 10.798791,-4.78419 -8.123691,9.31379 z"
       transform="matrix(0.17725962,-0.08015346,0.08015346,0.17725962,-89.160404,289.46228)" />
    <path
       style="fill:#ffffff;fill-opacity:1;stroke:#ffffff;stroke-width:0.746;stroke-linecap:square;stroke-linejoin:round;stroke-dasharray:none;stroke-opacity:1"
       id="path23"
       d="m -22.204393,351.81627 -12.127828,-2.37843 -1.256168,11.74412 -4.004136,-11.69222 -10.798791,4.78419 8.123692,-9.3138 -9.542624,-6.95993 12.127828,2.37843 1.256168,-11.74412 4.004136,11.69222 10.798791,-4.78419 -8.123691,9.31379 z"
       transform="matrix(0.17725962,-0.08015346,0.08015346,0.17725962,-103.60711,283.84412)" />
    <path
       style="fill:#ffffff;fill-opacity:1;stroke:#ffffff;stroke-width:0.746;stroke-linecap:square;stroke-linejoin:round;stroke-dasharray:none;stroke-opacity:1"
       id="path24"
       d="m -22.204393,351.81627 -12.127828,-2.37843 -1.256168,11.74412 -4.004136,-11.69222 -10.798791,4.78419 8.123692,-9.3138 -9.542624,-6.95993 12.127828,2.37843 1.256168,-11.74412 4.004136,11.69222 10.798791,-4.78419 -8.123691,9.31379 z"
       transform="matrix(0.14308546,0,0,0.14308546,27.883861,296.23829)" />
    <path
       style="fill:#ffffff;fill-opacity:1;stroke:#ffffff;stroke-width:0.746;stroke-linecap:square;stroke-linejoin:round;stroke-dasharray:none;stroke-opacity:1"
       id="path25"
       d="m -22.204393,351.81627 -12.127828,-2.37843 -1.256168,11.74412 -4.004136,-11.69222 -10.798791,4.78419 8.123692,-9.3138 -9.542624,-6.95993 12.127828,2.37843 1.256168,-11.74412 4.004136,11.69222 10.798791,-4.78419 -8.123691,9.31379 z"
       transform="matrix(0.0895297,0.17271359,-0.17271359,0.0895297,101.76524,319.92809)" />
    <path
       style="fill:#ffffff;fill-opacity:1;stroke:#ffffff;stroke-width:0.746;stroke-linecap:square;stroke-linejoin:round;stroke-dasharray:none;stroke-opacity:1"
       id="path26"
       d="m -22.204393,351.81627 -12.127828,-2.37843 -1.256168,11.74412 -4.004136,-11.69222 -10.798791,4.78419 8.123692,-9.3138 -9.542624,-6.95993 12.127828,2.37843 1.256168,-11.74412 4.004136,11.69222 10.798791,-4.78419 -8.123691,9.31379 z"
       transform="matrix(0.08840839,0,0,0.08840839,-11.658439,336.43105)" />
    <path
       style="fill:#ffffff;fill-opacity:1;stroke:#ffffff;stroke-width:0.746;stroke-linecap:square;stroke-linejoin:round;stroke-dasharray:none;stroke-opacity:1"
       id="path27"
       d="m -22.204393,351.81627 -12.127828,-2.37843 -1.256168,11.74412 -4.004136,-11.69222 -10.798791,4.78419 8.123692,-9.3138 -9.542624,-6.95993 12.127828,2.37843 1.256168,-11.74412 4.004136,11.69222 10.798791,-4.78419 -8.123691,9.31379 z"
       transform="matrix(0.08840839,0,0,0.08840839,10.425067,312.93193)" />
    <path
       style="fill:#ffffff;fill-opacity:1;stroke:#ffffff;stroke-width:0.746;stroke-linecap:square;stroke-linejoin:round;stroke-dasharray:none;stroke-opacity:1"
       id="path28"
       d="m -22.204393,351.81627 -12.127828,-2.37843 -1.256168,11.74412 -4.004136,-11.69222 -10.798791,4.78419 8.123692,-9.3138 -9.542624,-6.95993 12.127828,2.37843 1.256168,-11.74412 4.004136,11.69222 10.798791,-4.78419 -8.123691,9.31379 z"
       transform="matrix(0.08840839,0,0,0.08840839,10.425067,312.93193)" />
    <path
       style="fill:#ffffff;fill-opacity:1;stroke:#ffffff;stroke-width:0.746;stroke-linecap:square;stroke-linejoin:round;stroke-dasharray:none;stroke-opacity:1"
       id="path29"
       d="m -22.204393,351.81627 -12.127828,-2.37843 -1.256168,11.74412 -4.004136,-11.69222 -10.798791,4.78419 8.123692,-9.3138 -9.542624,-6.95993 12.127828,2.37843 1.256168,-11.74412 4.004136,11.69222 10.798791,-4.78419 -8.123691,9.31379 z"
       transform="matrix(0.0895297,0.17271359,-0.17271359,0.0895297,101.41072,334.222)" />
    <path
       style="fill:#ffffff;fill-opacity:1;stroke:#ffffff;stroke-width:0.746;stroke-linecap:square;stroke-linejoin:round;stroke-dasharray:none;stroke-opacity:1"
       id="path30"
       d="m -22.204393,351.81627 -12.127828,-2.37843 -1.256168,11.74412 -4.004136,-11.69222 -10.798791,4.78419 8.123692,-9.3138 -9.542624,-6.95993 12.127828,2.37843 1.256168,-11.74412 4.004136,11.69222 10.798791,-4.78419 -8.123691,9.31379 z"
       transform="matrix(0.14308546,0,0,0.14308546,31.262027,309.57714)" />
    <path
       style="fill:#ffffff;fill-opacity:1;stroke:#ffffff;stroke-width:0.746;stroke-linecap:square;stroke-linejoin:round;stroke-dasharray:none;stroke-opacity:1"
       id="path31"
       d="m -22.204393,351.81627 -12.127828,-2.37843 -1.256168,11.74412 -4.004136,-11.69222 -10.798791,4.78419 8.123692,-9.3138 -9.542624,-6.95993 12.127828,2.37843 1.256168,-11.74412 4.004136,11.69222 10.798791,-4.78419 -8.123691,9.31379 z"
       transform="matrix(0.17725962,-0.08015346,0.08015346,0.17725962,43.65552,296.83087)" />
    <path
       style="fill:#ffffff;fill-opacity:1;stroke:#ffffff;stroke-width:0.746;stroke-linecap:square;stroke-linejoin:round;stroke-dasharray:none;stroke-opacity:1"
       id="path32"
       d="m -22.204393,351.81627 -12.127828,-2.37843 -1.256168,11.74412 -4.004136,-11.69222 -10.798791,4.78419 8.123692,-9.3138 -9.542624,-6.95993 12.127828,2.37843 1.256168,-11.74412 4.004136,11.69222 10.798791,-4.78419 -8.123691,9.31379 z"
       transform="matrix(0.11160168,-0.05046418,0.05046418,0.11160168,53.070964,303.87171)" />
    <path
       style="fill:#ffffff;fill-opacity:1;stroke:#ffffff;stroke-width:0.746;stroke-linecap:square;stroke-linejoin:round;stroke-dasharray:none;stroke-opacity:1"
       id="path33"
       d="m -22.204393,351.81627 -12.127828,-2.37843 -1.256168,11.74412 -4.004136,-11.69222 -10.798791,4.78419 8.123692,-9.3138 -9.542624,-6.95993 12.127828,2.37843 1.256168,-11.74412 4.004136,11.69222 10.798791,-4.78419 -8.123691,9.31379 z"
       transform="matrix(0.17725962,-0.08015346,0.08015346,0.17725962,66.376268,321.02823)" />
    <path
       style="fill:#ffffff;fill-opacity:1;stroke:#ffffff;stroke-width:0.746;stroke-linecap:square;stroke-linejoin:round;stroke-dasharray:none;stroke-opacity:1"
       id="path34"
       d="m -22.204393,351.81627 -12.127828,-2.37843 -1.256168,11.74412 -4.004136,-11.69222 -10.798791,4.78419 8.123692,-9.3138 -9.542624,-6.95993 12.127828,2.37843 1.256168,-11.74412 4.004136,11.69222 10.798791,-4.78419 -8.123691,9.31379 z"
       transform="matrix(0.11446817,0,0,0.11446817,96.790745,322.99789)" />
    <path
       style="fill:#ffffff;fill-opacity:1;stroke:#ffffff;stroke-width:0.746;stroke-linecap:square;stroke-linejoin:round;stroke-dasharray:none;stroke-opacity:1"
       id="path35"
       d="m -22.204393,351.81627 -12.127828,-2.37843 -1.256168,11.74412 -4.004136,-11.69222 -10.798791,4.78419 8.123692,-9.3138 -9.542624,-6.95993 12.127828,2.37843 1.256168,-11.74412 4.004136,11.69222 10.798791,-4.78419 -8.123691,9.31379 z"
       transform="matrix(0.17725962,-0.08015346,0.08015346,0.17725962,-49.62061,317.98336)" />
    <path
       style="fill:#ffffff;fill-opacity:1;stroke:#ffffff;stroke-width:0.746;stroke-linecap:square;stroke-linejoin:round;stroke-dasharray:none;stroke-opacity:1"
       id="path36"
       d="m -22.204393,351.81627 -12.127828,-2.37843 -1.256168,11.74412 -4.004136,-11.69222 -10.798791,4.78419 8.123692,-9.3138 -9.542624,-6.95993 12.127828,2.37843 1.256168,-11.74412 4.004136,11.69222 10.798791,-4.78419 -8.123691,9.31379 z"
       transform="matrix(0.17725962,-0.08015346,0.08015346,0.17725962,-90.108904,308.72889)" />
    <path
       style="fill:#ffffff;fill-opacity:1;stroke:#ffffff;stroke-width:0.746;stroke-linecap:square;stroke-linejoin:round;stroke-dasharray:none;stroke-opacity:1"
       id="path37"
       d="m -22.204393,351.81627 -12.127828,-2.37843 -1.256168,11.74412 -4.004136,-11.69222 -10.798791,4.78419 8.123692,-9.3138 -9.542624,-6.95993 12.127828,2.37843 1.256168,-11.74412 4.004136,11.69222 10.798791,-4.78419 -8.123691,9.31379 z"
       transform="matrix(0.18709668,0,0,0.18709668,147.14539,308.6007)" />
    <path
       style="fill:#ffffff;fill-opacity:1;stroke:#ffffff;stroke-width:0.746;stroke-linecap:square;stroke-linejoin:round;stroke-dasharray:none;stroke-opacity:1"
       id="path38"
       d="m -22.204393,351.81627 -12.127828,-2.37843 -1.256168,11.74412 -4.004136,-11.69222 -10.798791,4.78419 8.123692,-9.3138 -9.542624,-6.95993 12.127828,2.37843 1.256168,-11.74412 4.004136,11.69222 10.798791,-4.78419 -8.123691,9.31379 z"
       transform="matrix(0.18015278,0.05049895,-0.05049895,0.18015278,182.60821,277.34518)" />
    <path
       style="fill:#ffffff;fill-opacity:1;stroke:#ffffff;stroke-width:0.746;stroke-linecap:square;stroke-linejoin:round;stroke-dasharray:none;stroke-opacity:1"
       id="path39"
       d="m -22.204393,351.81627 -12.127828,-2.37843 -1.256168,11.74412 -4.004136,-11.69222 -10.798791,4.78419 8.123692,-9.3138 -9.542624,-6.95993 12.127828,2.37843 1.256168,-11.74412 4.004136,11.69222 10.798791,-4.78419 -8.123691,9.31379 z"
       transform="matrix(0.14308546,0,0,0.14308546,171.89029,302.99051)" />
    <path
       style="fill:#ffffff;fill-opacity:1;stroke:#ffffff;stroke-width:0.746;stroke-linecap:square;stroke-linejoin:round;stroke-dasharray:none;stroke-opacity:1"
       id="path40"
       d="m -22.204393,351.81627 -12.127828,-2.37843 -1.256168,11.74412 -4.004136,-11.69222 -10.798791,4.78419 8.123692,-9.3138 -9.542624,-6.95993 12.127828,2.37843 1.256168,-11.74412 4.004136,11.69222 10.798791,-4.78419 -8.123691,9.31379 z"
       transform="matrix(0.08840839,0,0,0.08840839,139.8002,317.34028)" />
    <path
       style="fill:#ffffff;fill-opacity:1;stroke:#ffffff;stroke-width:0.746;stroke-linecap:square;stroke-linejoin:round;stroke-dasharray:none;stroke-opacity:1"
       id="path41"
       d="m -22.204393,351.81627 -12.127828,-2.37843 -1.256168,11.74412 -4.004136,-11.69222 -10.798791,4.78419 8.123692,-9.3138 -9.542624,-6.95993 12.127828,2.37843 1.256168,-11.74412 4.004136,11.69222 10.798791,-4.78419 -8.123691,9.31379 z"
       transform="matrix(0.09721081,0,0,0.09721081,174.33485,332.98889)" />
    <path
       style="fill:#ffffff;fill-opacity:1;stroke:#ffffff;stroke-width:0.746;stroke-linecap:square;stroke-linejoin:round;stroke-dasharray:none;stroke-opacity:1"
       id="path42"
       d="m -22.204393,351.81627 -12.127828,-2.37843 -1.256168,11.74412 -4.004136,-11.69222 -10.798791,4.78419 8.123692,-9.3138 -9.542624,-6.95993 12.127828,2.37843 1.256168,-11.74412 4.004136,11.69222 10.798791,-4.78419 -8.123691,9.31379 z"
       transform="matrix(0.0800672,0.09989084,-0.09989084,0.0800672,165.2254,314.50133)" />
    <path
       style="fill:#ffffff;fill-opacity:1;stroke:#ffffff;stroke-width:0.746;stroke-linecap:square;stroke-linejoin:round;stroke-dasharray:none;stroke-opacity:1"
       id="path43"
       d="m -22.204393,351.81627 -12.127828,-2.37843 -1.256168,11.74412 -4.004136,-11.69222 -10.798791,4.78419 8.123692,-9.3138 -9.542624,-6.95993 12.127828,2.37843 1.256168,-11.74412 4.004136,11.69222 10.798791,-4.78419 -8.123691,9.31379 z"
       transform="matrix(0.19227066,0.02962336,-0.02962336,0.19227066,202.51738,275.79892)" />
    <path
       style="fill:#ffffff;fill-opacity:1;stroke:#ffffff;stroke-width:0.746;stroke-linecap:square;stroke-linejoin:round;stroke-dasharray:none;stroke-opacity:1"
       id="path44"
       d="m -22.204393,351.81627 -12.127828,-2.37843 -1.256168,11.74412 -4.004136,-11.69222 -10.798791,4.78419 8.123692,-9.3138 -9.542624,-6.95993 12.127828,2.37843 1.256168,-11.74412 4.004136,11.69222 10.798791,-4.78419 -8.123691,9.31379 z"
       transform="matrix(0.14801689,-0.06693045,0.06693045,0.14801689,161.59897,323.70499)" />
    <path
       style="fill:#ffffff;fill-opacity:1;stroke:#ffffff;stroke-width:0.746;stroke-linecap:square;stroke-linejoin:round;stroke-dasharray:none;stroke-opacity:1"
       id="path45"
       d="m -22.204393,351.81627 -12.127828,-2.37843 -1.256168,11.74412 -4.004136,-11.69222 -10.798791,4.78419 8.123692,-9.3138 -9.542624,-6.95993 12.127828,2.37843 1.256168,-11.74412 4.004136,11.69222 10.798791,-4.78419 -8.123691,9.31379 z"
       transform="matrix(0.1068803,-0.04832926,0.04832926,0.1068803,94.679496,317.19102)" />
    <path
       style="fill:#ffffff;fill-opacity:1;stroke:#ffffff;stroke-width:0.746;stroke-linecap:square;stroke-linejoin:round;stroke-dasharray:none;stroke-opacity:1"
       id="path46"
       d="m -22.204393,351.81627 -12.127828,-2.37843 -1.256168,11.74412 -4.004136,-11.69222 -10.798791,4.78419 8.123692,-9.3138 -9.542624,-6.95993 12.127828,2.37843 1.256168,-11.74412 4.004136,11.69222 10.798791,-4.78419 -8.123691,9.31379 z"
       transform="matrix(0.17725962,-0.08015346,0.08015346,0.17725962,128.71413,287.45011)" />
    <path
       style="fill:#ffffff;fill-opacity:1;stroke:#ffffff;stroke-width:0.746;stroke-linecap:square;stroke-linejoin:round;stroke-dasharray:none;stroke-opacity:1"
       id="path47"
       d="m -22.204393,351.81627 -12.127828,-2.37843 -1.256168,11.74412 -4.004136,-11.69222 -10.798791,4.78419 8.123692,-9.3138 -9.542624,-6.95993 12.127828,2.37843 1.256168,-11.74412 4.004136,11.69222 10.798791,-4.78419 -8.123691,9.31379 z"
       transform="matrix(0.17725962,-0.08015346,0.08015346,0.17725962,160.91852,296.58241)" />
    <path
       style="fill:#ffffff;fill-opacity:1;stroke:#ffffff;stroke-width:0.746;stroke-linecap:square;stroke-linejoin:round;stroke-dasharray:none;stroke-opacity:1"
       id="path48"
       d="m -22.204393,351.81627 -12.127828,-2.37843 -1.256168,11.74412 -4.004136,-11.69222 -10.798791,4.78419 8.123692,-9.3138 -9.542624,-6.95993 12.127828,2.37843 1.256168,-11.74412 4.004136,11.69222 10.798791,-4.78419 -8.123691,9.31379 z"
       transform="matrix(0.11877416,-0.05370743,0.05370743,0.11877416,177.14324,320.34943)" />
    <path
       style="fill:#ffffff;fill-opacity:1;stroke:#ffffff;stroke-width:0.746;stroke-linecap:square;stroke-linejoin:round;stroke-dasharray:none;stroke-opacity:1"
       id="path49"
       d="m -22.204393,351.81627 -12.127828,-2.37843 -1.256168,11.74412 -4.004136,-11.69222 -10.798791,4.78419 8.123692,-9.3138 -9.542624,-6.95993 12.127828,2.37843 1.256168,-11.74412 4.004136,11.69222 10.798791,-4.78419 -8.123691,9.31379 z"
       transform="matrix(0.17725962,-0.08015346,0.08015346,0.17725962,110.5108,293.67427)" />
    <path
       style="fill:#ffffff;fill-opacity:1;stroke:#ffffff;stroke-width:0.746;stroke-linecap:square;stroke-linejoin:round;stroke-dasharray:none;stroke-opacity:1"
       id="path50"
       d="m -22.204393,351.81627 -12.127828,-2.37843 -1.256168,11.74412 -4.004136,-11.69222 -10.798791,4.78419 8.123692,-9.3138 -9.542624,-6.95993 12.127828,2.37843 1.256168,-11.74412 4.004136,11.69222 10.798791,-4.78419 -8.123691,9.31379 z"
       transform="matrix(0.17725962,-0.08015346,0.08015346,0.17725962,98.820959,283.67824)" />
    <path
       style="fill:#ffffff;fill-opacity:1;stroke:#ffffff;stroke-width:0.746;stroke-linecap:square;stroke-linejoin:round;stroke-dasharray:none;stroke-opacity:1"
       id="path51"
       d="m -22.204393,351.81627 -12.127828,-2.37843 -1.256168,11.74412 -4.004136,-11.69222 -10.798791,4.78419 8.123692,-9.3138 -9.542624,-6.95993 12.127828,2.37843 1.256168,-11.74412 4.004136,11.69222 10.798791,-4.78419 -8.123691,9.31379 z"
       transform="matrix(0.08840839,0,0,0.08840839,176.32292,330.64701)" />
    <path
       style="fill:#ffffff;fill-opacity:1;stroke:#ffffff;stroke-width:0.746;stroke-linecap:square;stroke-linejoin:round;stroke-dasharray:none;stroke-opacity:1"
       id="path52"
       d="m -22.204393,351.81627 -12.127828,-2.37843 -1.256168,11.74412 -4.004136,-11.69222 -10.798791,4.78419 8.123692,-9.3138 -9.542624,-6.95993 12.127828,2.37843 1.256168,-11.74412 4.004136,11.69222 10.798791,-4.78419 -8.123691,9.31379 z"
       transform="matrix(0.17725962,-0.08015346,0.08015346,0.17725962,138.36075,312.19932)" />
    <path
       style="fill:#ffffff;fill-opacity:1;stroke:#ffffff;stroke-width:0.746;stroke-linecap:square;stroke-linejoin:round;stroke-dasharray:none;stroke-opacity:1"
       id="path53"
       d="m -22.204393,351.81627 -12.127828,-2.37843 -1.256168,11.74412 -4.004136,-11.69222 -10.798791,4.78419 8.123692,-9.3138 -9.542624,-6.95993 12.127828,2.37843 1.256168,-11.74412 4.004136,11.69222 10.798791,-4.78419 -8.123691,9.31379 z"
       transform="matrix(0.17725962,-0.08015346,0.08015346,0.17725962,97.872459,302.94485)" />
    <path
       style="fill:#ffffff;fill-opacity:1;stroke:#ffffff;stroke-width:0.746;stroke-linecap:square;stroke-linejoin:round;stroke-dasharray:none;stroke-opacity:1"
       id="path54"
       d="m -22.204393,351.81627 -12.127828,-2.37843 -1.256168,11.74412 -4.004136,-11.69222 -10.798791,4.78419 8.123692,-9.3138 -9.542624,-6.95993 12.127828,2.37843 1.256168,-11.74412 4.004136,11.69222 10.798791,-4.78419 -8.123691,9.31379 z"
       transform="matrix(0.18709668,0,0,0.18709668,207.83098,310.19074)" />
    <path
       style="fill:#ffffff;fill-opacity:1;stroke:#ffffff;stroke-width:0.746;stroke-linecap:square;stroke-linejoin:round;stroke-dasharray:none;stroke-opacity:1"
       id="path55"
       d="m -22.204393,351.81627 -12.127828,-2.37843 -1.256168,11.74412 -4.004136,-11.69222 -10.798791,4.78419 8.123692,-9.3138 -9.542624,-6.95993 12.127828,2.37843 1.256168,-11.74412 4.004136,11.69222 10.798791,-4.78419 -8.123691,9.31379 z"
       transform="matrix(0.18015278,0.05049895,-0.05049895,0.18015278,238.77719,283.12922)" />
    <path
       style="fill:#ffffff;fill-opacity:1;stroke:#ffffff;stroke-width:0.746;stroke-linecap:square;stroke-linejoin:round;stroke-dasharray:none;stroke-opacity:1"
       id="path56"
       d="m -22.204393,351.81627 -12.127828,-2.37843 -1.256168,11.74412 -4.004136,-11.69222 -10.798791,4.78419 8.123692,-9.3138 -9.542624,-6.95993 12.127828,2.37843 1.256168,-11.74412 4.004136,11.69222 10.798791,-4.78419 -8.123691,9.31379 z"
       transform="matrix(0.14308546,0,0,0.14308546,228.05927,308.77455)" />
    <path
       style="fill:#ffffff;fill-opacity:1;stroke:#ffffff;stroke-width:0.746;stroke-linecap:square;stroke-linejoin:round;stroke-dasharray:none;stroke-opacity:1"
       id="path57"
       d="m -22.204393,351.81627 -12.127828,-2.37843 -1.256168,11.74412 -4.004136,-11.69222 -10.798791,4.78419 8.123692,-9.3138 -9.542624,-6.95993 12.127828,2.37843 1.256168,-11.74412 4.004136,11.69222 10.798791,-4.78419 -8.123691,9.31379 z"
       transform="matrix(0.09721081,0,0,0.09721081,202.43626,317.15768)" />
    <path
       style="fill:#ffffff;fill-opacity:1;stroke:#ffffff;stroke-width:0.746;stroke-linecap:square;stroke-linejoin:round;stroke-dasharray:none;stroke-opacity:1"
       id="path58"
       d="m -22.204393,351.81627 -12.127828,-2.37843 -1.256168,11.74412 -4.004136,-11.69222 -10.798791,4.78419 8.123692,-9.3138 -9.542624,-6.95993 12.127828,2.37843 1.256168,-11.74412 4.004136,11.69222 10.798791,-4.78419 -8.123691,9.31379 z"
       transform="matrix(0.19227066,0.02962336,-0.02962336,0.19227066,258.68636,281.58296)" />
    <path
       style="fill:#ffffff;fill-opacity:1;stroke:#ffffff;stroke-width:0.746;stroke-linecap:square;stroke-linejoin:round;stroke-dasharray:none;stroke-opacity:1"
       id="path59"
       d="m -22.204393,351.81627 -12.127828,-2.37843 -1.256168,11.74412 -4.004136,-11.69222 -10.798791,4.78419 8.123692,-9.3138 -9.542624,-6.95993 12.127828,2.37843 1.256168,-11.74412 4.004136,11.69222 10.798791,-4.78419 -8.123691,9.31379 z"
       transform="matrix(0.14801689,-0.06693045,0.06693045,0.14801689,217.76795,329.48903)" />
    <path
       style="fill:#ffffff;fill-opacity:1;stroke:#ffffff;stroke-width:0.746;stroke-linecap:square;stroke-linejoin:round;stroke-dasharray:none;stroke-opacity:1"
       id="path60"
       d="m -22.204393,351.81627 -12.127828,-2.37843 -1.256168,11.74412 -4.004136,-11.69222 -10.798791,4.78419 8.123692,-9.3138 -9.542624,-6.95993 12.127828,2.37843 1.256168,-11.74412 4.004136,11.69222 10.798791,-4.78419 -8.123691,9.31379 z"
       transform="matrix(0.17725962,-0.08015346,0.08015346,0.17725962,207.54637,279.97638)" />
    <path
       style="fill:#ffffff;fill-opacity:1;stroke:#ffffff;stroke-width:0.746;stroke-linecap:square;stroke-linejoin:round;stroke-dasharray:none;stroke-opacity:1"
       id="path61"
       d="m -22.204393,351.81627 -12.127828,-2.37843 -1.256168,11.74412 -4.004136,-11.69222 -10.798791,4.78419 8.123692,-9.3138 -9.542624,-6.95993 12.127828,2.37843 1.256168,-11.74412 4.004136,11.69222 10.798791,-4.78419 -8.123691,9.31379 z"
       transform="matrix(0.17725962,-0.08015346,0.08015346,0.17725962,168.55061,317.02711)" />
    <path
       style="fill:#ffffff;fill-opacity:1;stroke:#ffffff;stroke-width:0.746;stroke-linecap:square;stroke-linejoin:round;stroke-dasharray:none;stroke-opacity:1"
       id="path63"
       d="m -22.204393,351.81627 -12.127828,-2.37843 -1.256168,11.74412 -4.004136,-11.69222 -10.798791,4.78419 8.123692,-9.3138 -9.542624,-6.95993 12.127828,2.37843 1.256168,-11.74412 4.004136,11.69222 10.798791,-4.78419 -8.123691,9.31379 z"
       transform="matrix(0.10624156,-0.04804043,0.04804043,0.10624156,241.78869,342.95431)" />
    <path
       style="fill:#ffffff;fill-opacity:1;stroke:#ffffff;stroke-width:0.746;stroke-linecap:square;stroke-linejoin:round;stroke-dasharray:none;stroke-opacity:1"
       id="path64"
       d="m -22.204393,351.81627 -12.127828,-2.37843 -1.256168,11.74412 -4.004136,-11.69222 -10.798791,4.78419 8.123692,-9.3138 -9.542624,-6.95993 12.127828,2.37843 1.256168,-11.74412 4.004136,11.69222 10.798791,-4.78419 -8.123691,9.31379 z"
       transform="matrix(0.03249548,-0.13568514,0.13568514,0.03249548,211.98383,333.77441)" />
    <path
       style="fill:#ffffff;fill-opacity:1;stroke:#ffffff;stroke-width:0.746;stroke-linecap:square;stroke-linejoin:round;stroke-dasharray:none;stroke-opacity:1"
       id="path65"
       d="m -22.204393,351.81627 -12.127828,-2.37843 -1.256168,11.74412 -4.004136,-11.69222 -10.798791,4.78419 8.123692,-9.3138 -9.542624,-6.95993 12.127828,2.37843 1.256168,-11.74412 4.004136,11.69222 10.798791,-4.78419 -8.123691,9.31379 z"
       transform="matrix(0.0895297,0.17271359,-0.17271359,0.0895297,325.24269,342.67388)" />
    <path
       style="fill:#ffffff;fill-opacity:1;stroke:#ffffff;stroke-width:0.746;stroke-linecap:square;stroke-linejoin:round;stroke-dasharray:none;stroke-opacity:1"
       id="path66"
       d="m -22.204393,351.81627 -12.127828,-2.37843 -1.256168,11.74412 -4.004136,-11.69222 -10.798791,4.78419 8.123692,-9.3138 -9.542624,-6.95993 12.127828,2.37843 1.256168,-11.74412 4.004136,11.69222 10.798791,-4.78419 -8.123691,9.31379 z"
       transform="matrix(0.11877416,-0.05370743,0.05370743,0.11877416,233.31222,326.13347)" />
    <path
       style="fill:#ffffff;fill-opacity:1;stroke:#ffffff;stroke-width:0.746;stroke-linecap:square;stroke-linejoin:round;stroke-dasharray:none;stroke-opacity:1"
       id="path67"
       d="m -22.204393,351.81627 -12.127828,-2.37843 -1.256168,11.74412 -4.004136,-11.69222 -10.798791,4.78419 8.123692,-9.3138 -9.542624,-6.95993 12.127828,2.37843 1.256168,-11.74412 4.004136,11.69222 10.798791,-4.78419 -8.123691,9.31379 z"
       transform="matrix(0.14308546,0,0,0.14308546,272.0342,296.23829)" />
    <path
       style="fill:#ffffff;fill-opacity:1;stroke:#ffffff;stroke-width:0.746;stroke-linecap:square;stroke-linejoin:round;stroke-dasharray:none;stroke-opacity:1"
       id="path68"
       d="m -22.204393,351.81627 -12.127828,-2.37843 -1.256168,11.74412 -4.004136,-11.69222 -10.798791,4.78419 8.123692,-9.3138 -9.542624,-6.95993 12.127828,2.37843 1.256168,-11.74412 4.004136,11.69222 10.798791,-4.78419 -8.123691,9.31379 z"
       transform="matrix(0.08840839,0,0,0.08840839,232.4919,336.43105)" />
    <path
       style="fill:#ffffff;fill-opacity:1;stroke:#ffffff;stroke-width:0.746;stroke-linecap:square;stroke-linejoin:round;stroke-dasharray:none;stroke-opacity:1"
       id="path69"
       d="m -22.204393,351.81627 -12.127828,-2.37843 -1.256168,11.74412 -4.004136,-11.69222 -10.798791,4.78419 8.123692,-9.3138 -9.542624,-6.95993 12.127828,2.37843 1.256168,-11.74412 4.004136,11.69222 10.798791,-4.78419 -8.123691,9.31379 z"
       transform="matrix(0.08840839,0,0,0.08840839,254.57541,312.93193)" />
    <path
       style="fill:#ffffff;fill-opacity:1;stroke:#ffffff;stroke-width:0.746;stroke-linecap:square;stroke-linejoin:round;stroke-dasharray:none;stroke-opacity:1"
       id="path70"
       d="m -22.204393,351.81627 -12.127828,-2.37843 -1.256168,11.74412 -4.004136,-11.69222 -10.798791,4.78419 8.123692,-9.3138 -9.542624,-6.95993 12.127828,2.37843 1.256168,-11.74412 4.004136,11.69222 10.798791,-4.78419 -8.123691,9.31379 z"
       transform="matrix(0.08840839,0,0,0.08840839,254.57541,312.93193)" />
    <path
       style="fill:#ffffff;fill-opacity:1;stroke:#ffffff;stroke-width:0.746;stroke-linecap:square;stroke-linejoin:round;stroke-dasharray:none;stroke-opacity:1"
       id="path71"
       d="m -22.204393,351.81627 -12.127828,-2.37843 -1.256168,11.74412 -4.004136,-11.69222 -10.798791,4.78419 8.123692,-9.3138 -9.542624,-6.95993 12.127828,2.37843 1.256168,-11.74412 4.004136,11.69222 10.798791,-4.78419 -8.123691,9.31379 z"
       transform="matrix(0.17725962,-0.08015346,0.08015346,0.17725962,194.52973,317.98336)" />
    <path
       style="fill:#ffffff;fill-opacity:1;stroke:#ffffff;stroke-width:0.746;stroke-linecap:square;stroke-linejoin:round;stroke-dasharray:none;stroke-opacity:1"
       id="path72"
       d="m -22.204393,351.81627 -12.127828,-2.37843 -1.256168,11.74412 -4.004136,-11.69222 -10.798791,4.78419 8.123692,-9.3138 -9.542624,-6.95993 12.127828,2.37843 1.256168,-11.74412 4.004136,11.69222 10.798791,-4.78419 -8.123691,9.31379 z"
       transform="matrix(0.14308546,0,0,0.14308546,300.42284,324.5151)" />
    <path
       style="fill:#ffffff;fill-opacity:1;stroke:#ffffff;stroke-width:0.746;stroke-linecap:square;stroke-linejoin:round;stroke-dasharray:none;stroke-opacity:1"
       id="path73"
       d="m -22.204393,351.81627 -12.127828,-2.37843 -1.256168,11.74412 -4.004136,-11.69222 -10.798791,4.78419 8.123692,-9.3138 -9.542624,-6.95993 12.127828,2.37843 1.256168,-11.74412 4.004136,11.69222 10.798791,-4.78419 -8.123691,9.31379 z"
       transform="matrix(0.09721081,0,0,0.09721081,290.56763,308.38936)" />
    <path
       style="fill:#ffffff;fill-opacity:1;stroke:#ffffff;stroke-width:0.746;stroke-linecap:square;stroke-linejoin:round;stroke-dasharray:none;stroke-opacity:1"
       id="path74"
       d="m -22.204393,351.81627 -12.127828,-2.37843 -1.256168,11.74412 -4.004136,-11.69222 -10.798791,4.78419 8.123692,-9.3138 -9.542624,-6.95993 12.127828,2.37843 1.256168,-11.74412 4.004136,11.69222 10.798791,-4.78419 -8.123691,9.31379 z"
       transform="matrix(0.19227066,0.02962336,-0.02962336,0.19227066,300.9155,302.24342)" />
    <path
       style="fill:#ffffff;fill-opacity:1;stroke:#ffffff;stroke-width:0.746;stroke-linecap:square;stroke-linejoin:round;stroke-dasharray:none;stroke-opacity:1"
       id="path75"
       d="m -22.204393,351.81627 -12.127828,-2.37843 -1.256168,11.74412 -4.004136,-11.69222 -10.798791,4.78419 8.123692,-9.3138 -9.542624,-6.95993 12.127828,2.37843 1.256168,-11.74412 4.004136,11.69222 10.798791,-4.78419 -8.123691,9.31379 z"
       transform="matrix(0.14801689,-0.06693045,0.06693045,0.14801689,277.83175,299.10546)" />
    <path
       style="fill:#ffffff;fill-opacity:1;stroke:#ffffff;stroke-width:0.746;stroke-linecap:square;stroke-linejoin:round;stroke-dasharray:none;stroke-opacity:1"
       id="path77"
       d="m -22.204393,351.81627 -12.127828,-2.37843 -1.256168,11.74412 -4.004136,-11.69222 -10.798791,4.78419 8.123692,-9.3138 -9.542624,-6.95993 12.127828,2.37843 1.256168,-11.74412 4.004136,11.69222 10.798791,-4.78419 -8.123691,9.31379 z"
       transform="matrix(0.17725962,-0.08015346,0.08015346,0.17725962,277.1513,271.98288)" />
    <path
       style="fill:#ffffff;fill-opacity:1;stroke:#ffffff;stroke-width:0.746;stroke-linecap:square;stroke-linejoin:round;stroke-dasharray:none;stroke-opacity:1"
       id="path78"
       d="m -22.204393,351.81627 -12.127828,-2.37843 -1.256168,11.74412 -4.004136,-11.69222 -10.798791,4.78419 8.123692,-9.3138 -9.542624,-6.95993 12.127828,2.37843 1.256168,-11.74412 4.004136,11.69222 10.798791,-4.78419 -8.123691,9.31379 z"
       transform="matrix(0.11877416,-0.05370743,0.05370743,0.11877416,293.37602,295.7499)" />
    <path
       style="fill:#ffffff;fill-opacity:1;stroke:#ffffff;stroke-width:0.746;stroke-linecap:square;stroke-linejoin:round;stroke-dasharray:none;stroke-opacity:1"
       id="path79"
       d="m -22.204393,351.81627 -12.127828,-2.37843 -1.256168,11.74412 -4.004136,-11.69222 -10.798791,4.78419 8.123692,-9.3138 -9.542624,-6.95993 12.127828,2.37843 1.256168,-11.74412 4.004136,11.69222 10.798791,-4.78419 -8.123691,9.31379 z"
       transform="matrix(0.08840839,0,0,0.08840839,292.5557,306.04748)" />
    <path
       style="fill:#ffffff;fill-opacity:1;stroke:#ffffff;stroke-width:0.746;stroke-linecap:square;stroke-linejoin:round;stroke-dasharray:none;stroke-opacity:1"
       id="path80"
       d="m -22.204393,351.81627 -12.127828,-2.37843 -1.256168,11.74412 -4.004136,-11.69222 -10.798791,4.78419 8.123692,-9.3138 -9.542624,-6.95993 12.127828,2.37843 1.256168,-11.74412 4.004136,11.69222 10.798791,-4.78419 -8.123691,9.31379 z"
       transform="matrix(0.17725962,-0.08015346,0.08015346,0.17725962,254.59353,287.59979)" />
    <path
       style="fill:#ffffff;fill-opacity:1;stroke:#ffffff;stroke-width:0.746;stroke-linecap:square;stroke-linejoin:round;stroke-dasharray:none;stroke-opacity:1"
       id="path81"
       d="m -22.204393,351.81627 -12.127828,-2.37843 -1.256168,11.74412 -4.004136,-11.69222 -10.798791,4.78419 8.123692,-9.3138 -9.542624,-6.95993 12.127828,2.37843 1.256168,-11.74412 4.004136,11.69222 10.798791,-4.78419 -8.123691,9.31379 z"
       transform="matrix(0.18709668,0,0,0.18709668,276.09468,315.11065)" />
    <path
       style="fill:#ffffff;fill-opacity:1;stroke:#ffffff;stroke-width:0.746;stroke-linecap:square;stroke-linejoin:round;stroke-dasharray:none;stroke-opacity:1"
       id="path82"
       d="m -22.204393,351.81627 -12.127828,-2.37843 -1.256168,11.74412 -4.004136,-11.69222 -10.798791,4.78419 8.123692,-9.3138 -9.542624,-6.95993 12.127828,2.37843 1.256168,-11.74412 4.004136,11.69222 10.798791,-4.78419 -8.123691,9.31379 z"
       transform="matrix(0.09721081,0,0,0.09721081,288.53461,347.90709)" />
    <path
       style="fill:#ffffff;fill-opacity:1;stroke:#ffffff;stroke-width:0.746;stroke-linecap:square;stroke-linejoin:round;stroke-dasharray:none;stroke-opacity:1"
       id="path83"
       d="m -22.204393,351.81627 -12.127828,-2.37843 -1.256168,11.74412 -4.004136,-11.69222 -10.798791,4.78419 8.123692,-9.3138 -9.542624,-6.95993 12.127828,2.37843 1.256168,-11.74412 4.004136,11.69222 10.798791,-4.78419 -8.123691,9.31379 z"
       transform="matrix(0.17725962,-0.08015346,0.08015346,0.17725962,284.78339,292.42758)" />
    <path
       style="fill:#ffffff;fill-opacity:1;stroke:#ffffff;stroke-width:0.746;stroke-linecap:square;stroke-linejoin:round;stroke-dasharray:none;stroke-opacity:1"
       id="path84"
       d="m -22.204393,351.81627 -12.127828,-2.37843 -1.256168,11.74412 -4.004136,-11.69222 -10.798791,4.78419 8.123692,-9.3138 -9.542624,-6.95993 12.127828,2.37843 1.256168,-11.74412 4.004136,11.69222 10.798791,-4.78419 -8.123691,9.31379 z"
       transform="matrix(0.18709668,0,0,0.18709668,365.26798,313.26568)" />
    <path
       style="fill:#ffffff;fill-opacity:1;stroke:#ffffff;stroke-width:0.746;stroke-linecap:square;stroke-linejoin:round;stroke-dasharray:none;stroke-opacity:1"
       id="path85"
       d="m -22.204393,351.81627 -12.127828,-2.37843 -1.256168,11.74412 -4.004136,-11.69222 -10.798791,4.78419 8.123692,-9.3138 -9.542624,-6.95993 12.127828,2.37843 1.256168,-11.74412 4.004136,11.69222 10.798791,-4.78419 -8.123691,9.31379 z"
       transform="matrix(0.18015278,0.05049895,-0.05049895,0.18015278,396.21418,286.20416)" />
    <path
       style="fill:#ffffff;fill-opacity:1;stroke:#ffffff;stroke-width:0.746;stroke-linecap:square;stroke-linejoin:round;stroke-dasharray:none;stroke-opacity:1"
       id="path86"
       d="m -22.204393,351.81627 -12.127828,-2.37843 -1.256168,11.74412 -4.004136,-11.69222 -10.798791,4.78419 8.123692,-9.3138 -9.542624,-6.95993 12.127828,2.37843 1.256168,-11.74412 4.004136,11.69222 10.798791,-4.78419 -8.123691,9.31379 z"
       transform="matrix(0.14308546,0,0,0.14308546,385.49626,311.84949)" />
    <path
       style="fill:#ffffff;fill-opacity:1;stroke:#ffffff;stroke-width:0.746;stroke-linecap:square;stroke-linejoin:round;stroke-dasharray:none;stroke-opacity:1"
       id="path87"
       d="m -22.204393,351.81627 -12.127828,-2.37843 -1.256168,11.74412 -4.004136,-11.69222 -10.798791,4.78419 8.123692,-9.3138 -9.542624,-6.95993 12.127828,2.37843 1.256168,-11.74412 4.004136,11.69222 10.798791,-4.78419 -8.123691,9.31379 z"
       transform="matrix(0.08840839,0,0,0.08840839,353.40618,326.19926)" />
    <path
       style="fill:#ffffff;fill-opacity:1;stroke:#ffffff;stroke-width:0.746;stroke-linecap:square;stroke-linejoin:round;stroke-dasharray:none;stroke-opacity:1"
       id="path88"
       d="m -22.204393,351.81627 -12.127828,-2.37843 -1.256168,11.74412 -4.004136,-11.69222 -10.798791,4.78419 8.123692,-9.3138 -9.542624,-6.95993 12.127828,2.37843 1.256168,-11.74412 4.004136,11.69222 10.798791,-4.78419 -8.123691,9.31379 z"
       transform="matrix(0.09721081,0,0,0.09721081,359.87326,320.23262)" />
    <path
       style="fill:#ffffff;fill-opacity:1;stroke:#ffffff;stroke-width:0.746;stroke-linecap:square;stroke-linejoin:round;stroke-dasharray:none;stroke-opacity:1"
       id="path89"
       d="m -22.204393,351.81627 -12.127828,-2.37843 -1.256168,11.74412 -4.004136,-11.69222 -10.798791,4.78419 8.123692,-9.3138 -9.542624,-6.95993 12.127828,2.37843 1.256168,-11.74412 4.004136,11.69222 10.798791,-4.78419 -8.123691,9.31379 z"
       transform="matrix(0.0800672,0.09989084,-0.09989084,0.0800672,378.83137,323.36031)" />
    <path
       style="fill:#ffffff;fill-opacity:1;stroke:#ffffff;stroke-width:0.746;stroke-linecap:square;stroke-linejoin:round;stroke-dasharray:none;stroke-opacity:1"
       id="path90"
       d="m -22.204393,351.81627 -12.127828,-2.37843 -1.256168,11.74412 -4.004136,-11.69222 -10.798791,4.78419 8.123692,-9.3138 -9.542624,-6.95993 12.127828,2.37843 1.256168,-11.74412 4.004136,11.69222 10.798791,-4.78419 -8.123691,9.31379 z"
       transform="matrix(0.14707923,0,0,0.14707923,322.75549,315.83515)" />
    <path
       style="fill:#ffffff;fill-opacity:1;stroke:#ffffff;stroke-width:0.746;stroke-linecap:square;stroke-linejoin:round;stroke-dasharray:none;stroke-opacity:1"
       id="path91"
       d="m -22.204393,351.81627 -12.127828,-2.37843 -1.256168,11.74412 -4.004136,-11.69222 -10.798791,4.78419 8.123692,-9.3138 -9.542624,-6.95993 12.127828,2.37843 1.256168,-11.74412 4.004136,11.69222 10.798791,-4.78419 -8.123691,9.31379 z"
       transform="matrix(0.19227066,0.02962336,-0.02962336,0.19227066,416.12335,284.6579)" />
    <path
       style="fill:#ffffff;fill-opacity:1;stroke:#ffffff;stroke-width:0.746;stroke-linecap:square;stroke-linejoin:round;stroke-dasharray:none;stroke-opacity:1"
       id="path92"
       d="m -22.204393,351.81627 -12.127828,-2.37843 -1.256168,11.74412 -4.004136,-11.69222 -10.798791,4.78419 8.123692,-9.3138 -9.542624,-6.95993 12.127828,2.37843 1.256168,-11.74412 4.004136,11.69222 10.798791,-4.78419 -8.123691,9.31379 z"
       transform="matrix(0.14801689,-0.06693045,0.06693045,0.14801689,375.20495,332.56397)" />
    <path
       style="fill:#ffffff;fill-opacity:1;stroke:#ffffff;stroke-width:0.746;stroke-linecap:square;stroke-linejoin:round;stroke-dasharray:none;stroke-opacity:1"
       id="path93"
       d="m -22.204393,351.81627 -12.127828,-2.37843 -1.256168,11.74412 -4.004136,-11.69222 -10.798791,4.78419 8.123692,-9.3138 -9.542624,-6.95993 12.127828,2.37843 1.256168,-11.74412 4.004136,11.69222 10.798791,-4.78419 -8.123691,9.31379 z"
       transform="matrix(0.17725962,-0.08015346,0.08015346,0.17725962,364.98337,283.05132)" />
    <path
       style="fill:#ffffff;fill-opacity:1;stroke:#ffffff;stroke-width:0.746;stroke-linecap:square;stroke-linejoin:round;stroke-dasharray:none;stroke-opacity:1"
       id="path94"
       d="m -22.204393,351.81627 -12.127828,-2.37843 -1.256168,11.74412 -4.004136,-11.69222 -10.798791,4.78419 8.123692,-9.3138 -9.542624,-6.95993 12.127828,2.37843 1.256168,-11.74412 4.004136,11.69222 10.798791,-4.78419 -8.123691,9.31379 z"
       transform="matrix(0.17725962,-0.08015346,0.08015346,0.17725962,348.12718,305.34233)" />
    <path
       style="fill:#ffffff;fill-opacity:1;stroke:#ffffff;stroke-width:0.746;stroke-linecap:square;stroke-linejoin:round;stroke-dasharray:none;stroke-opacity:1"
       id="path95"
       d="m -22.204393,351.81627 -12.127828,-2.37843 -1.256168,11.74412 -4.004136,-11.69222 -10.798791,4.78419 8.123692,-9.3138 -9.542624,-6.95993 12.127828,2.37843 1.256168,-11.74412 4.004136,11.69222 10.798791,-4.78419 -8.123691,9.31379 z"
       transform="matrix(0.17725962,-0.08015346,0.08015346,0.17725962,374.52449,305.44139)" />
    <path
       style="fill:#ffffff;fill-opacity:1;stroke:#ffffff;stroke-width:0.746;stroke-linecap:square;stroke-linejoin:round;stroke-dasharray:none;stroke-opacity:1"
       id="path96"
       d="m -22.204393,351.81627 -12.127828,-2.37843 -1.256168,11.74412 -4.004136,-11.69222 -10.798791,4.78419 8.123692,-9.3138 -9.542624,-6.95993 12.127828,2.37843 1.256168,-11.74412 4.004136,11.69222 10.798791,-4.78419 -8.123691,9.31379 z"
       transform="matrix(0.11877416,-0.05370743,0.05370743,0.11877416,390.74922,329.20841)" />
    <path
       style="fill:#ffffff;fill-opacity:1;stroke:#ffffff;stroke-width:0.746;stroke-linecap:square;stroke-linejoin:round;stroke-dasharray:none;stroke-opacity:1"
       id="path97"
       d="m -22.204393,351.81627 -12.127828,-2.37843 -1.256168,11.74412 -4.004136,-11.69222 -10.798791,4.78419 8.123692,-9.3138 -9.542624,-6.95993 12.127828,2.37843 1.256168,-11.74412 4.004136,11.69222 10.798791,-4.78419 -8.123691,9.31379 z"
       transform="matrix(0.17725962,-0.08015346,0.08015346,0.17725962,324.11677,302.53325)" />
    <path
       style="fill:#ffffff;fill-opacity:1;stroke:#ffffff;stroke-width:0.746;stroke-linecap:square;stroke-linejoin:round;stroke-dasharray:none;stroke-opacity:1"
       id="path98"
       d="m -22.204393,351.81627 -12.127828,-2.37843 -1.256168,11.74412 -4.004136,-11.69222 -10.798791,4.78419 8.123692,-9.3138 -9.542624,-6.95993 12.127828,2.37843 1.256168,-11.74412 4.004136,11.69222 10.798791,-4.78419 -8.123691,9.31379 z"
       transform="matrix(0.17725962,-0.08015346,0.08015346,0.17725962,312.42693,292.53722)" />
    <path
       style="fill:#ffffff;fill-opacity:1;stroke:#ffffff;stroke-width:0.746;stroke-linecap:square;stroke-linejoin:round;stroke-dasharray:none;stroke-opacity:1"
       id="path99"
       d="m -22.204393,351.81627 -12.127828,-2.37843 -1.256168,11.74412 -4.004136,-11.69222 -10.798791,4.78419 8.123692,-9.3138 -9.542624,-6.95993 12.127828,2.37843 1.256168,-11.74412 4.004136,11.69222 10.798791,-4.78419 -8.123691,9.31379 z"
       transform="matrix(0.17725962,-0.08015346,0.08015346,0.17725962,297.98023,286.91906)" />
    <path
       style="fill:#ffffff;fill-opacity:1;stroke:#ffffff;stroke-width:0.746;stroke-linecap:square;stroke-linejoin:round;stroke-dasharray:none;stroke-opacity:1"
       id="path100"
       d="m -22.204393,351.81627 -12.127828,-2.37843 -1.256168,11.74412 -4.004136,-11.69222 -10.798791,4.78419 8.123692,-9.3138 -9.542624,-6.95993 12.127828,2.37843 1.256168,-11.74412 4.004136,11.69222 10.798791,-4.78419 -8.123691,9.31379 z"
       transform="matrix(0.08840839,0,0,0.08840839,389.9289,339.50599)" />
    <path
       style="fill:#ffffff;fill-opacity:1;stroke:#ffffff;stroke-width:0.746;stroke-linecap:square;stroke-linejoin:round;stroke-dasharray:none;stroke-opacity:1"
       id="path101"
       d="m -22.204393,351.81627 -12.127828,-2.37843 -1.256168,11.74412 -4.004136,-11.69222 -10.798791,4.78419 8.123692,-9.3138 -9.542624,-6.95993 12.127828,2.37843 1.256168,-11.74412 4.004136,11.69222 10.798791,-4.78419 -8.123691,9.31379 z"
       transform="matrix(0.17725962,-0.08015346,0.08015346,0.17725962,351.96673,321.0583)" />
    <path
       style="fill:#ffffff;fill-opacity:1;stroke:#ffffff;stroke-width:0.746;stroke-linecap:square;stroke-linejoin:round;stroke-dasharray:none;stroke-opacity:1"
       id="path102"
       d="m -22.204393,351.81627 -12.127828,-2.37843 -1.256168,11.74412 -4.004136,-11.69222 -10.798791,4.78419 8.123692,-9.3138 -9.542624,-6.95993 12.127828,2.37843 1.256168,-11.74412 4.004136,11.69222 10.798791,-4.78419 -8.123691,9.31379 z"
       transform="matrix(0.17725962,-0.08015346,0.08015346,0.17725962,311.47843,311.80383)" />
    <path
       style="fill:#ffffff;fill-opacity:1;stroke:#ffffff;stroke-width:0.746;stroke-linecap:square;stroke-linejoin:round;stroke-dasharray:none;stroke-opacity:1"
       id="path103"
       d="m -22.204393,351.81627 -12.127828,-2.37843 -1.256168,11.74412 -4.004136,-11.69222 -10.798791,4.78419 8.123692,-9.3138 -9.542624,-6.95993 12.127828,2.37843 1.256168,-11.74412 4.004136,11.69222 10.798791,-4.78419 -8.123691,9.31379 z"
       transform="matrix(0.0895297,0.17271359,-0.17271359,0.0895297,378.57709,369.34108)" />
    <path
       style="fill:#ffffff;fill-opacity:1;stroke:#ffffff;stroke-width:0.746;stroke-linecap:square;stroke-linejoin:round;stroke-dasharray:none;stroke-opacity:1"
       id="path104"
       d="m -22.204393,351.81627 -12.127828,-2.37843 -1.256168,11.74412 -4.004136,-11.69222 -10.798791,4.78419 8.123692,-9.3138 -9.542624,-6.95993 12.127828,2.37843 1.256168,-11.74412 4.004136,11.69222 10.798791,-4.78419 -8.123691,9.31379 z"
       transform="matrix(0.15322917,0.11985981,-0.11985981,0.15322917,375.70989,286.75211)" />
    <path
       style="fill:#ffffff;fill-opacity:1;stroke:#ffffff;stroke-width:0.746;stroke-linecap:square;stroke-linejoin:round;stroke-dasharray:none;stroke-opacity:1"
       id="path105"
       d="m -22.204393,351.81627 -12.127828,-2.37843 -1.256168,11.74412 -4.004136,-11.69222 -10.798791,4.78419 8.123692,-9.3138 -9.542624,-6.95993 12.127828,2.37843 1.256168,-11.74412 4.004136,11.69222 10.798791,-4.78419 -8.123691,9.31379 z"
       transform="matrix(0.14308546,0,0,0.14308546,-218.14085,302.32202)" />
    <path
       style="fill:#ffffff;fill-opacity:1;stroke:#ffffff;stroke-width:0.746;stroke-linecap:square;stroke-linejoin:round;stroke-dasharray:none;stroke-opacity:1"
       id="path106"
       d="m -22.204393,351.81627 -12.127828,-2.37843 -1.256168,11.74412 -4.004136,-11.69222 -10.798791,4.78419 8.123692,-9.3138 -9.542624,-6.95993 12.127828,2.37843 1.256168,-11.74412 4.004136,11.69222 10.798791,-4.78419 -8.123691,9.31379 z"
       transform="matrix(0.14308546,0,0,0.14308546,-189.75221,330.59883)" />
    <path
       style="fill:#ffffff;fill-opacity:1;stroke:#ffffff;stroke-width:0.746;stroke-linecap:square;stroke-linejoin:round;stroke-dasharray:none;stroke-opacity:1"
       id="path107"
       d="m -22.204393,351.81627 -12.127828,-2.37843 -1.256168,11.74412 -4.004136,-11.69222 -10.798791,4.78419 8.123692,-9.3138 -9.542624,-6.95993 12.127828,2.37843 1.256168,-11.74412 4.004136,11.69222 10.798791,-4.78419 -8.123691,9.31379 z"
       transform="matrix(0.09721081,0,0,0.09721081,-199.60742,314.47309)" />
    <path
       style="fill:#ffffff;fill-opacity:1;stroke:#ffffff;stroke-width:0.746;stroke-linecap:square;stroke-linejoin:round;stroke-dasharray:none;stroke-opacity:1"
       id="path108"
       d="m -22.204393,351.81627 -12.127828,-2.37843 -1.256168,11.74412 -4.004136,-11.69222 -10.798791,4.78419 8.123692,-9.3138 -9.542624,-6.95993 12.127828,2.37843 1.256168,-11.74412 4.004136,11.69222 10.798791,-4.78419 -8.123691,9.31379 z"
       transform="matrix(0.19227066,0.02962336,-0.02962336,0.19227066,-189.25955,308.32715)" />
    <path
       style="fill:#ffffff;fill-opacity:1;stroke:#ffffff;stroke-width:0.746;stroke-linecap:square;stroke-linejoin:round;stroke-dasharray:none;stroke-opacity:1"
       id="path109"
       d="m -22.204393,351.81627 -12.127828,-2.37843 -1.256168,11.74412 -4.004136,-11.69222 -10.798791,4.78419 8.123692,-9.3138 -9.542624,-6.95993 12.127828,2.37843 1.256168,-11.74412 4.004136,11.69222 10.798791,-4.78419 -8.123691,9.31379 z"
       transform="matrix(0.14801689,-0.06693045,0.06693045,0.14801689,-212.3433,305.18919)" />
    <path
       style="fill:#ffffff;fill-opacity:1;stroke:#ffffff;stroke-width:0.746;stroke-linecap:square;stroke-linejoin:round;stroke-dasharray:none;stroke-opacity:1"
       id="path110"
       d="m -22.204393,351.81627 -12.127828,-2.37843 -1.256168,11.74412 -4.004136,-11.69222 -10.798791,4.78419 8.123692,-9.3138 -9.542624,-6.95993 12.127828,2.37843 1.256168,-11.74412 4.004136,11.69222 10.798791,-4.78419 -8.123691,9.31379 z"
       transform="matrix(0.1068803,-0.04832926,0.04832926,0.1068803,-236.13087,307.09942)" />
    <path
       style="fill:#ffffff;fill-opacity:1;stroke:#ffffff;stroke-width:0.746;stroke-linecap:square;stroke-linejoin:round;stroke-dasharray:none;stroke-opacity:1"
       id="path111"
       d="m -22.204393,351.81627 -12.127828,-2.37843 -1.256168,11.74412 -4.004136,-11.69222 -10.798791,4.78419 8.123692,-9.3138 -9.542624,-6.95993 12.127828,2.37843 1.256168,-11.74412 4.004136,11.69222 10.798791,-4.78419 -8.123691,9.31379 z"
       transform="matrix(0.17725962,-0.08015346,0.08015346,0.17725962,-213.02375,278.06661)" />
    <path
       style="fill:#ffffff;fill-opacity:1;stroke:#ffffff;stroke-width:0.746;stroke-linecap:square;stroke-linejoin:round;stroke-dasharray:none;stroke-opacity:1"
       id="path112"
       d="m -22.204393,351.81627 -12.127828,-2.37843 -1.256168,11.74412 -4.004136,-11.69222 -10.798791,4.78419 8.123692,-9.3138 -9.542624,-6.95993 12.127828,2.37843 1.256168,-11.74412 4.004136,11.69222 10.798791,-4.78419 -8.123691,9.31379 z"
       transform="matrix(0.11877416,-0.05370743,0.05370743,0.11877416,-196.79903,301.83363)" />
    <path
       style="fill:#ffffff;fill-opacity:1;stroke:#ffffff;stroke-width:0.746;stroke-linecap:square;stroke-linejoin:round;stroke-dasharray:none;stroke-opacity:1"
       id="path113"
       d="m -22.204393,351.81627 -12.127828,-2.37843 -1.256168,11.74412 -4.004136,-11.69222 -10.798791,4.78419 8.123692,-9.3138 -9.542624,-6.95993 12.127828,2.37843 1.256168,-11.74412 4.004136,11.69222 10.798791,-4.78419 -8.123691,9.31379 z"
       transform="matrix(0.08840839,0,0,0.08840839,-197.61935,312.13121)" />
    <path
       style="fill:#ffffff;fill-opacity:1;stroke:#ffffff;stroke-width:0.746;stroke-linecap:square;stroke-linejoin:round;stroke-dasharray:none;stroke-opacity:1"
       id="path114"
       d="m -22.204393,351.81627 -12.127828,-2.37843 -1.256168,11.74412 -4.004136,-11.69222 -10.798791,4.78419 8.123692,-9.3138 -9.542624,-6.95993 12.127828,2.37843 1.256168,-11.74412 4.004136,11.69222 10.798791,-4.78419 -8.123691,9.31379 z"
       transform="matrix(0.17725962,-0.08015346,0.08015346,0.17725962,-235.58152,293.68352)" />
    <path
       style="fill:#ffffff;fill-opacity:1;stroke:#ffffff;stroke-width:0.746;stroke-linecap:square;stroke-linejoin:round;stroke-dasharray:none;stroke-opacity:1"
       id="path115"
       d="m -22.204393,351.81627 -12.127828,-2.37843 -1.256168,11.74412 -4.004136,-11.69222 -10.798791,4.78419 8.123692,-9.3138 -9.542624,-6.95993 12.127828,2.37843 1.256168,-11.74412 4.004136,11.69222 10.798791,-4.78419 -8.123691,9.31379 z"
       transform="matrix(0.18709668,0,0,0.18709668,-214.08037,321.19438)" />
    <path
       style="fill:#ffffff;fill-opacity:1;stroke:#ffffff;stroke-width:0.746;stroke-linecap:square;stroke-linejoin:round;stroke-dasharray:none;stroke-opacity:1"
       id="path116"
       d="m -22.204393,351.81627 -12.127828,-2.37843 -1.256168,11.74412 -4.004136,-11.69222 -10.798791,4.78419 8.123692,-9.3138 -9.542624,-6.95993 12.127828,2.37843 1.256168,-11.74412 4.004136,11.69222 10.798791,-4.78419 -8.123691,9.31379 z"
       transform="matrix(0.09721081,0,0,0.09721081,-201.64044,353.99082)" />
    <path
       style="fill:#ffffff;fill-opacity:1;stroke:#ffffff;stroke-width:0.746;stroke-linecap:square;stroke-linejoin:round;stroke-dasharray:none;stroke-opacity:1"
       id="path117"
       d="m -22.204393,351.81627 -12.127828,-2.37843 -1.256168,11.74412 -4.004136,-11.69222 -10.798791,4.78419 8.123692,-9.3138 -9.542624,-6.95993 12.127828,2.37843 1.256168,-11.74412 4.004136,11.69222 10.798791,-4.78419 -8.123691,9.31379 z"
       transform="matrix(0.17725962,-0.08015346,0.08015346,0.17725962,-205.39166,298.51131)" />
    <path
       style="fill:#ffffff;fill-opacity:1;stroke:#ffffff;stroke-width:0.746;stroke-linecap:square;stroke-linejoin:round;stroke-dasharray:none;stroke-opacity:1"
       id="path118"
       d="m -22.204393,351.81627 -12.127828,-2.37843 -1.256168,11.74412 -4.004136,-11.69222 -10.798791,4.78419 8.123692,-9.3138 -9.542624,-6.95993 12.127828,2.37843 1.256168,-11.74412 4.004136,11.69222 10.798791,-4.78419 -8.123691,9.31379 z"
       transform="matrix(0.18709668,0,0,0.18709668,-124.90707,319.34941)" />
    <path
       style="fill:#ffffff;fill-opacity:1;stroke:#ffffff;stroke-width:0.746;stroke-linecap:square;stroke-linejoin:round;stroke-dasharray:none;stroke-opacity:1"
       id="path119"
       d="m -22.204393,351.81627 -12.127828,-2.37843 -1.256168,11.74412 -4.004136,-11.69222 -10.798791,4.78419 8.123692,-9.3138 -9.542624,-6.95993 12.127828,2.37843 1.256168,-11.74412 4.004136,11.69222 10.798791,-4.78419 -8.123691,9.31379 z"
       transform="matrix(0.18015278,0.05049895,-0.05049895,0.18015278,-93.960872,292.28789)" />
    <path
       style="fill:#ffffff;fill-opacity:1;stroke:#ffffff;stroke-width:0.746;stroke-linecap:square;stroke-linejoin:round;stroke-dasharray:none;stroke-opacity:1"
       id="path120"
       d="m -22.204393,351.81627 -12.127828,-2.37843 -1.256168,11.74412 -4.004136,-11.69222 -10.798791,4.78419 8.123692,-9.3138 -9.542624,-6.95993 12.127828,2.37843 1.256168,-11.74412 4.004136,11.69222 10.798791,-4.78419 -8.123691,9.31379 z"
       transform="matrix(0.14308546,0,0,0.14308546,-104.67879,317.93322)" />
    <path
       style="fill:#ffffff;fill-opacity:1;stroke:#ffffff;stroke-width:0.746;stroke-linecap:square;stroke-linejoin:round;stroke-dasharray:none;stroke-opacity:1"
       id="path121"
       d="m -22.204393,351.81627 -12.127828,-2.37843 -1.256168,11.74412 -4.004136,-11.69222 -10.798791,4.78419 8.123692,-9.3138 -9.542624,-6.95993 12.127828,2.37843 1.256168,-11.74412 4.004136,11.69222 10.798791,-4.78419 -8.123691,9.31379 z"
       transform="matrix(0.08840839,0,0,0.08840839,-136.76887,332.28299)" />
    <path
       style="fill:#ffffff;fill-opacity:1;stroke:#ffffff;stroke-width:0.746;stroke-linecap:square;stroke-linejoin:round;stroke-dasharray:none;stroke-opacity:1"
       id="path122"
       d="m -22.204393,351.81627 -12.127828,-2.37843 -1.256168,11.74412 -4.004136,-11.69222 -10.798791,4.78419 8.123692,-9.3138 -9.542624,-6.95993 12.127828,2.37843 1.256168,-11.74412 4.004136,11.69222 10.798791,-4.78419 -8.123691,9.31379 z"
       transform="matrix(0.09721081,0,0,0.09721081,-130.30179,326.31635)" />
    <path
       style="fill:#ffffff;fill-opacity:1;stroke:#ffffff;stroke-width:0.746;stroke-linecap:square;stroke-linejoin:round;stroke-dasharray:none;stroke-opacity:1"
       id="path123"
       d="m -22.204393,351.81627 -12.127828,-2.37843 -1.256168,11.74412 -4.004136,-11.69222 -10.798791,4.78419 8.123692,-9.3138 -9.542624,-6.95993 12.127828,2.37843 1.256168,-11.74412 4.004136,11.69222 10.798791,-4.78419 -8.123691,9.31379 z"
       transform="matrix(0.0800672,0.09989084,-0.09989084,0.0800672,-111.34368,329.44404)" />
    <path
       style="fill:#ffffff;fill-opacity:1;stroke:#ffffff;stroke-width:0.746;stroke-linecap:square;stroke-linejoin:round;stroke-dasharray:none;stroke-opacity:1"
       id="path124"
       d="m -22.204393,351.81627 -12.127828,-2.37843 -1.256168,11.74412 -4.004136,-11.69222 -10.798791,4.78419 8.123692,-9.3138 -9.542624,-6.95993 12.127828,2.37843 1.256168,-11.74412 4.004136,11.69222 10.798791,-4.78419 -8.123691,9.31379 z"
       transform="matrix(0.14707923,0,0,0.14707923,-167.41956,321.91888)" />
    <path
       style="fill:#ffffff;fill-opacity:1;stroke:#ffffff;stroke-width:0.746;stroke-linecap:square;stroke-linejoin:round;stroke-dasharray:none;stroke-opacity:1"
       id="path125"
       d="m -22.204393,351.81627 -12.127828,-2.37843 -1.256168,11.74412 -4.004136,-11.69222 -10.798791,4.78419 8.123692,-9.3138 -9.542624,-6.95993 12.127828,2.37843 1.256168,-11.74412 4.004136,11.69222 10.798791,-4.78419 -8.123691,9.31379 z"
       transform="matrix(0.19227066,0.02962336,-0.02962336,0.19227066,-74.051702,290.74163)" />
    <path
       style="fill:#ffffff;fill-opacity:1;stroke:#ffffff;stroke-width:0.746;stroke-linecap:square;stroke-linejoin:round;stroke-dasharray:none;stroke-opacity:1"
       id="path126"
       d="m -22.204393,351.81627 -12.127828,-2.37843 -1.256168,11.74412 -4.004136,-11.69222 -10.798791,4.78419 8.123692,-9.3138 -9.542624,-6.95993 12.127828,2.37843 1.256168,-11.74412 4.004136,11.69222 10.798791,-4.78419 -8.123691,9.31379 z"
       transform="matrix(0.14801689,-0.06693045,0.06693045,0.14801689,-114.9701,338.6477)" />
    <path
       style="fill:#ffffff;fill-opacity:1;stroke:#ffffff;stroke-width:0.746;stroke-linecap:square;stroke-linejoin:round;stroke-dasharray:none;stroke-opacity:1"
       id="path127"
       d="m -22.204393,351.81627 -12.127828,-2.37843 -1.256168,11.74412 -4.004136,-11.69222 -10.798791,4.78419 8.123692,-9.3138 -9.542624,-6.95993 12.127828,2.37843 1.256168,-11.74412 4.004136,11.69222 10.798791,-4.78419 -8.123691,9.31379 z"
       transform="matrix(0.17725962,-0.08015346,0.08015346,0.17725962,-125.19168,289.13505)" />
    <path
       style="fill:#ffffff;fill-opacity:1;stroke:#ffffff;stroke-width:0.746;stroke-linecap:square;stroke-linejoin:round;stroke-dasharray:none;stroke-opacity:1"
       id="path128"
       d="m -22.204393,351.81627 -12.127828,-2.37843 -1.256168,11.74412 -4.004136,-11.69222 -10.798791,4.78419 8.123692,-9.3138 -9.542624,-6.95993 12.127828,2.37843 1.256168,-11.74412 4.004136,11.69222 10.798791,-4.78419 -8.123691,9.31379 z"
       transform="matrix(0.17725962,-0.08015346,0.08015346,0.17725962,-142.04787,311.42606)" />
    <path
       style="fill:#ffffff;fill-opacity:1;stroke:#ffffff;stroke-width:0.746;stroke-linecap:square;stroke-linejoin:round;stroke-dasharray:none;stroke-opacity:1"
       id="path129"
       d="m -22.204393,351.81627 -12.127828,-2.37843 -1.256168,11.74412 -4.004136,-11.69222 -10.798791,4.78419 8.123692,-9.3138 -9.542624,-6.95993 12.127828,2.37843 1.256168,-11.74412 4.004136,11.69222 10.798791,-4.78419 -8.123691,9.31379 z"
       transform="matrix(0.17725962,-0.08015346,0.08015346,0.17725962,-115.65056,311.52512)" />
    <path
       style="fill:#ffffff;fill-opacity:1;stroke:#ffffff;stroke-width:0.746;stroke-linecap:square;stroke-linejoin:round;stroke-dasharray:none;stroke-opacity:1"
       id="path130"
       d="m -22.204393,351.81627 -12.127828,-2.37843 -1.256168,11.74412 -4.004136,-11.69222 -10.798791,4.78419 8.123692,-9.3138 -9.542624,-6.95993 12.127828,2.37843 1.256168,-11.74412 4.004136,11.69222 10.798791,-4.78419 -8.123691,9.31379 z"
       transform="matrix(0.11877416,-0.05370743,0.05370743,0.11877416,-99.425832,335.29214)" />
    <path
       style="fill:#ffffff;fill-opacity:1;stroke:#ffffff;stroke-width:0.746;stroke-linecap:square;stroke-linejoin:round;stroke-dasharray:none;stroke-opacity:1"
       id="path131"
       d="m -22.204393,351.81627 -12.127828,-2.37843 -1.256168,11.74412 -4.004136,-11.69222 -10.798791,4.78419 8.123692,-9.3138 -9.542624,-6.95993 12.127828,2.37843 1.256168,-11.74412 4.004136,11.69222 10.798791,-4.78419 -8.123691,9.31379 z"
       transform="matrix(0.17725962,-0.08015346,0.08015346,0.17725962,-166.05828,308.61698)" />
    <path
       style="fill:#ffffff;fill-opacity:1;stroke:#ffffff;stroke-width:0.746;stroke-linecap:square;stroke-linejoin:round;stroke-dasharray:none;stroke-opacity:1"
       id="path132"
       d="m -22.204393,351.81627 -12.127828,-2.37843 -1.256168,11.74412 -4.004136,-11.69222 -10.798791,4.78419 8.123692,-9.3138 -9.542624,-6.95993 12.127828,2.37843 1.256168,-11.74412 4.004136,11.69222 10.798791,-4.78419 -8.123691,9.31379 z"
       transform="matrix(0.17725962,-0.08015346,0.08015346,0.17725962,-177.74812,298.62095)" />
    <path
       style="fill:#ffffff;fill-opacity:1;stroke:#ffffff;stroke-width:0.746;stroke-linecap:square;stroke-linejoin:round;stroke-dasharray:none;stroke-opacity:1"
       id="path133"
       d="m -22.204393,351.81627 -12.127828,-2.37843 -1.256168,11.74412 -4.004136,-11.69222 -10.798791,4.78419 8.123692,-9.3138 -9.542624,-6.95993 12.127828,2.37843 1.256168,-11.74412 4.004136,11.69222 10.798791,-4.78419 -8.123691,9.31379 z"
       transform="matrix(0.17725962,-0.08015346,0.08015346,0.17725962,-192.19482,293.00279)" />
    <path
       style="fill:#ffffff;fill-opacity:1;stroke:#ffffff;stroke-width:0.746;stroke-linecap:square;stroke-linejoin:round;stroke-dasharray:none;stroke-opacity:1"
       id="path134"
       d="m -22.204393,351.81627 -12.127828,-2.37843 -1.256168,11.74412 -4.004136,-11.69222 -10.798791,4.78419 8.123692,-9.3138 -9.542624,-6.95993 12.127828,2.37843 1.256168,-11.74412 4.004136,11.69222 10.798791,-4.78419 -8.123691,9.31379 z"
       transform="matrix(0.08840839,0,0,0.08840839,-100.24615,345.58972)" />
    <path
       style="fill:#ffffff;fill-opacity:1;stroke:#ffffff;stroke-width:0.746;stroke-linecap:square;stroke-linejoin:round;stroke-dasharray:none;stroke-opacity:1"
       id="path135"
       d="m -22.204393,351.81627 -12.127828,-2.37843 -1.256168,11.74412 -4.004136,-11.69222 -10.798791,4.78419 8.123692,-9.3138 -9.542624,-6.95993 12.127828,2.37843 1.256168,-11.74412 4.004136,11.69222 10.798791,-4.78419 -8.123691,9.31379 z"
       transform="matrix(0.17725962,-0.08015346,0.08015346,0.17725962,-138.20832,327.14203)" />
    <path
       style="fill:#ffffff;fill-opacity:1;stroke:#ffffff;stroke-width:0.746;stroke-linecap:square;stroke-linejoin:round;stroke-dasharray:none;stroke-opacity:1"
       id="path136"
       d="m -22.204393,351.81627 -12.127828,-2.37843 -1.256168,11.74412 -4.004136,-11.69222 -10.798791,4.78419 8.123692,-9.3138 -9.542624,-6.95993 12.127828,2.37843 1.256168,-11.74412 4.004136,11.69222 10.798791,-4.78419 -8.123691,9.31379 z"
       transform="matrix(0.17725962,-0.08015346,0.08015346,0.17725962,-178.69662,317.88756)" />
    <path
       style="fill:#ffffff;fill-opacity:1;stroke:#ffffff;stroke-width:0.746;stroke-linecap:square;stroke-linejoin:round;stroke-dasharray:none;stroke-opacity:1"
       id="path137"
       d="m -22.204393,351.81627 -12.127828,-2.37843 -1.256168,11.74412 -4.004136,-11.69222 -10.798791,4.78419 8.123692,-9.3138 -9.542624,-6.95993 12.127828,2.37843 1.256168,-11.74412 4.004136,11.69222 10.798791,-4.78419 -8.123691,9.31379 z"
       transform="matrix(0.0895297,0.17271359,-0.17271359,0.0895297,-111.59796,375.42481)" />
    <path
       style="fill:#ffffff;fill-opacity:1;stroke:#ffffff;stroke-width:0.746;stroke-linecap:square;stroke-linejoin:round;stroke-dasharray:none;stroke-opacity:1"
       id="path138"
       d="m -22.204393,351.81627 -12.127828,-2.37843 -1.256168,11.74412 -4.004136,-11.69222 -10.798791,4.78419 8.123692,-9.3138 -9.542624,-6.95993 12.127828,2.37843 1.256168,-11.74412 4.004136,11.69222 10.798791,-4.78419 -8.123691,9.31379 z"
       transform="matrix(0.15322917,0.11985981,-0.11985981,0.15322917,-114.46516,292.83584)" />
    <path
       style="fill:#ffffff;fill-opacity:1;stroke:#ffffff;stroke-width:0.746;stroke-linecap:square;stroke-linejoin:round;stroke-dasharray:none;stroke-opacity:1"
       id="path139"
       d="m -22.204393,351.81627 -12.127828,-2.37843 -1.256168,11.74412 -4.004136,-11.69222 -10.798791,4.78419 8.123692,-9.3138 -9.542624,-6.95993 12.127828,2.37843 1.256168,-11.74412 4.004136,11.69222 10.798791,-4.78419 -8.123691,9.31379 z"
       transform="matrix(0.06951466,0.13410216,-0.13410216,0.06951466,66.075484,313.69923)" />
    <path
       style="fill:#ffffff;fill-opacity:1;stroke:#ffffff;stroke-width:0.746;stroke-linecap:square;stroke-linejoin:round;stroke-dasharray:none;stroke-opacity:1"
       id="path140"
       d="m -22.204393,351.81627 -12.127828,-2.37843 -1.256168,11.74412 -4.004136,-11.69222 -10.798791,4.78419 8.123692,-9.3138 -9.542624,-6.95993 12.127828,2.37843 1.256168,-11.74412 4.004136,11.69222 10.798791,-4.78419 -8.123691,9.31379 z"
       transform="matrix(0.18709668,0,0,0.18709668,83.795407,310.95948)" />
    <path
       style="fill:#ffffff;fill-opacity:1;stroke:#ffffff;stroke-width:0.746;stroke-linecap:square;stroke-linejoin:round;stroke-dasharray:none;stroke-opacity:1"
       id="path141"
       d="m -22.204393,351.81627 -12.127828,-2.37843 -1.256168,11.74412 -4.004136,-11.69222 -10.798791,4.78419 8.123692,-9.3138 -9.542624,-6.95993 12.127828,2.37843 1.256168,-11.74412 4.004136,11.69222 10.798791,-4.78419 -8.123691,9.31379 z"
       transform="matrix(0.10624156,-0.04804043,0.04804043,0.10624156,41.781158,343.96521)" />
    <path
       style="fill:#ffffff;fill-opacity:1;stroke:#ffffff;stroke-width:0.746;stroke-linecap:square;stroke-linejoin:round;stroke-dasharray:none;stroke-opacity:1"
       id="path142"
       d="m -22.204393,351.81627 -12.127828,-2.37843 -1.256168,11.74412 -4.004136,-11.69222 -10.798791,4.78419 8.123692,-9.3138 -9.542624,-6.95993 12.127828,2.37843 1.256168,-11.74412 4.004136,11.69222 10.798791,-4.78419 -8.123691,9.31379 z"
       transform="matrix(0.14308546,0,0,0.14308546,111.80531,332.69928)" />
    <path
       style="fill:#ffffff;fill-opacity:1;stroke:#ffffff;stroke-width:0.746;stroke-linecap:square;stroke-linejoin:round;stroke-dasharray:none;stroke-opacity:1"
       id="path143"
       d="m -22.204393,351.81627 -12.127828,-2.37843 -1.256168,11.74412 -4.004136,-11.69222 -10.798791,4.78419 8.123692,-9.3138 -9.542624,-6.95993 12.127828,2.37843 1.256168,-11.74412 4.004136,11.69222 10.798791,-4.78419 -8.123691,9.31379 z"
       transform="matrix(0.08840839,0,0,0.08840839,116.23794,360.35578)" />
  </g>
</svg>
